<svg id="OBJECTS" xmlns="http://www.w3.org/2000/svg" xmlns:xlink="http://www.w3.org/1999/xlink" viewBox="0 0 1030.49 1043.07"><defs><style>.cls-1,.cls-12,.cls-19,.cls-20,.cls-21,.cls-22,.cls-23,.cls-24,.cls-25,.cls-26{fill:none;}.cls-2{fill:#e9bf63;opacity:0.59;}.cls-3{fill:#90ddfb;}.cls-4{fill:#fff;}.cls-5{fill:#5fa4c5;}.cls-6{fill:#edbd4c;}.cls-7{fill:#c0993f;}.cls-8{clip-path:url(#clip-path);}.cls-9{fill:#d2d2d2;}.cls-10{fill:#2b2270;}.cls-11,.cls-30,.cls-31{fill:#3a2c9e;}.cls-12,.cls-20,.cls-21,.cls-22,.cls-23,.cls-24,.cls-25,.cls-26{stroke:#fff;stroke-linecap:round;stroke-linejoin:round;}.cls-12{stroke-width:0.63px;}.cls-13{fill:#de56a5;}.cls-14{fill:#a04079;}.cls-15{clip-path:url(#clip-path-2);}.cls-16{fill:#8a84e6;}.cls-17{fill:#6d69b3;}.cls-18{clip-path:url(#clip-path-3);}.cls-19{stroke:#edbd4c;stroke-miterlimit:10;stroke-width:0.87px;}.cls-20{stroke-width:0.36px;}.cls-21{stroke-width:0.4px;}.cls-22{stroke-width:0.38px;}.cls-23{stroke-width:0.43px;}.cls-24{stroke-width:0.47px;}.cls-25{stroke-width:0.51px;}.cls-26{stroke-width:1.02px;}.cls-27{fill:#d0a645;}.cls-28{fill:#b18e3b;}.cls-29{fill:#211b51;}.cls-30{opacity:0.32;}.cls-31{opacity:0.6;}.cls-32{fill:#dca08f;}.cls-33{fill:#c58575;}.cls-34{fill:#ebb999;}.cls-35{fill:#241c5b;}.cls-36{fill:#c44c93;}.cls-37{fill:#cf4387;opacity:0.17;}</style><clipPath id="clip-path" transform="translate(30.14 98.5)"><path class="cls-1" d="M231.4,522.56c-12.42,0-22.52-14.5-22.52-32.33S219,457.9,231.4,457.9H442.72v64.66Z"/></clipPath><clipPath id="clip-path-2" transform="translate(30.14 98.5)"><path class="cls-1" d="M363,726.56c-12.42,0-22.52-14.5-22.52-32.33S350.54,661.9,363,661.9H574.28v64.66Z"/></clipPath><clipPath id="clip-path-3" transform="translate(30.14 98.5)"><path class="cls-1" d="M434.66,647.65c-12.42,0-22.52-14.5-22.52-32.33S422.24,583,434.66,583H646v64.66Z"/></clipPath></defs><title>2353234</title><path class="cls-2" d="M480.16,750.8a172.73,172.73,0,0,1,45.8.95c77,11.94,330.66,38.14,332.58-135,2.26-204.14-127.39-130-133.13-269.81S431,182.56,368.89,289.58,97.51,295.59,84,493.53C70.72,686.94,146,788.39,480.16,750.8Z" transform="translate(30.14 98.5)"/><path class="cls-3" d="M639.26,519.4h198.9A22.84,22.84,0,0,1,861,542.24v253a22.84,22.84,0,0,1-22.84,22.84H639.26a10.93,10.93,0,0,1-10.93-10.93V530.33A10.93,10.93,0,0,1,639.26,519.4Z"/><path class="cls-4" d="M631.29,519.4h198.9A22.84,22.84,0,0,1,853,542.24v253a22.84,22.84,0,0,1-22.84,22.84H631.29a10.93,10.93,0,0,1-10.93-10.93V530.33A10.93,10.93,0,0,1,631.29,519.4Z"/><path class="cls-3" d="M613.78,519.4h198.9a22.84,22.84,0,0,1,22.84,22.84v253a22.84,22.84,0,0,1-22.84,22.84H613.78a10.93,10.93,0,0,1-10.93-10.93V530.33A10.93,10.93,0,0,1,613.78,519.4Z"/><path class="cls-5" d="M613,519.4h46a0,0,0,0,1,0,0V818.92a0,0,0,0,1,0,0H614.11a11.26,11.26,0,0,1-11.26-11.26V529.55A10.15,10.15,0,0,1,613,519.4Z"/><rect class="cls-5" x="659.01" y="580.06" width="176.52" height="23.93"/><rect class="cls-5" x="659.01" y="719.03" width="176.52" height="23.93"/><path class="cls-6" d="M147.12,548.47H269.6a0,0,0,0,1,0,0V629a0,0,0,0,1,0,0H147.12a21.58,21.58,0,0,1-21.58-21.58V570.06A21.58,21.58,0,0,1,147.12,548.47Z"/><path class="cls-7" d="M159.2,564.91h99.19a0,0,0,0,1,0,0v50.44a0,0,0,0,1,0,0H159.2a13.52,13.52,0,0,1-13.52-13.52V578.43A13.52,13.52,0,0,1,159.2,564.91Z"/><path class="cls-6" d="M250.93,548.47H468.07a4.79,4.79,0,0,1,4.79,4.79v70.92a4.79,4.79,0,0,1-4.79,4.79H250.93a21.58,21.58,0,0,1-21.58-21.58V570.06A21.58,21.58,0,0,1,250.93,548.47Z"/><path class="cls-4" d="M231.4,522.56c-12.42,0-22.52-14.5-22.52-32.33S219,457.9,231.4,457.9H442.72v64.66Z" transform="translate(30.14 98.5)"/><g class="cls-8"><rect class="cls-9" x="241.33" y="562.93" width="239.79" height="2.83"/><rect class="cls-9" x="237.93" y="577.74" width="252.51" height="2.83"/><rect class="cls-9" x="237.93" y="592.56" width="252.51" height="2.83"/><rect class="cls-9" x="237.93" y="607.38" width="252.51" height="2.83"/></g><path class="cls-10" d="M368.45,699.34A202.43,202.43,0,0,1,262.61,729a205.29,205.29,0,0,1-88.84-20.34,30.32,30.32,0,0,1-17-27.26V543.11H368.45Z" transform="translate(30.14 98.5)"/><rect class="cls-11" x="136.76" y="627.15" width="311.95" height="46.42" rx="12.44" ry="12.44"/><rect class="cls-6" x="176.89" y="622.56" width="8.67" height="125.51"/><rect class="cls-6" x="168.91" y="733.82" width="24.63" height="50.42" rx="6.6" ry="6.6"/><path class="cls-3" d="M303.85,677.38c-.07-.95-8.12-94.93-74.17-132.77l.6-1c34.82,19.95,53.29,55.25,62.66,81.35A225.8,225.8,0,0,1,305,677.28Z" transform="translate(30.14 98.5)"/><path class="cls-3" d="M241.09,552c-.06-.23-1.44-5.7,2.56-16.9l1.13.4c-3.85,10.8-2.54,16.14-2.53,16.2Z" transform="translate(30.14 98.5)"/><path class="cls-3" d="M242.07,542s-5.17-13.45,5.51-18.46c0,0,4.61,6.94.44,12.87S242.07,542,242.07,542Z" transform="translate(30.14 98.5)"/><path class="cls-3" d="M242.07,542.26h0a.24.24,0,0,1-.22-.27,73.11,73.11,0,0,1,3.75-14.8.25.25,0,0,1,.46.17A72.69,72.69,0,0,0,242.32,542,.25.25,0,0,1,242.07,542.26Z" transform="translate(30.14 98.5)"/><path class="cls-3" d="M229.65,556.14l-.59-1a29.37,29.37,0,0,1,12.59-3.83l0,1.2A28.69,28.69,0,0,0,229.65,556.14Z" transform="translate(30.14 98.5)"/><path class="cls-3" d="M235.24,553s-13.75-4.31-18.08,6.66c0,0,7.22,4.16,12.88-.38S235.24,553,235.24,553Z" transform="translate(30.14 98.5)"/><path class="cls-3" d="M220.76,557.87a.25.25,0,0,1-.1-.47,73,73,0,0,1,14.54-4.67.24.24,0,0,1,.28.2.24.24,0,0,1-.2.28,72.7,72.7,0,0,0-14.43,4.64Z" transform="translate(30.14 98.5)"/><path class="cls-3" d="M252.72,561.69c-.09-.21-2.14-5.27,2.32-17.75l1.13.4c-4.27,12-2.36,16.84-2.34,16.88Z" transform="translate(30.14 98.5)"/><path class="cls-3" d="M253.22,551.57s-5.75-15,6.12-20.53c0,0,5.12,7.72.48,14.32S253.22,551.57,253.22,551.57Z" transform="translate(30.14 98.5)"/><path class="cls-3" d="M253.22,551.85h0a.27.27,0,0,1-.24-.3,81.39,81.39,0,0,1,4.17-16.46.27.27,0,0,1,.35-.16.27.27,0,0,1,.16.35,80.9,80.9,0,0,0-4.14,16.34A.27.27,0,0,1,253.22,551.85Z" transform="translate(30.14 98.5)"/><path class="cls-3" d="M239.38,567.23l-.59-1A36.88,36.88,0,0,1,254,561.83l0,1.2A36.31,36.31,0,0,0,239.38,567.23Z" transform="translate(30.14 98.5)"/><path class="cls-3" d="M245.63,563.75s-15.29-4.79-20.1,7.41c0,0,8,4.62,14.32-.42S245.63,563.75,245.63,563.75Z" transform="translate(30.14 98.5)"/><path class="cls-3" d="M229.52,569.21a.27.27,0,0,1-.11-.52,81.35,81.35,0,0,1,16.16-5.2.27.27,0,0,1,.1.54,80.67,80.67,0,0,0-16,5.16Z" transform="translate(30.14 98.5)"/><path class="cls-3" d="M264.79,575.9c-.06-.21-1.29-5.33,4.72-16.59l1.06.56c-5.75,10.77-4.63,15.68-4.62,15.73Z" transform="translate(30.14 98.5)"/><path class="cls-3" d="M266.72,566.34s-3.36-15.06,8.74-18.68c0,0,3.78,8.07-1.56,13.7S266.72,566.34,266.72,566.34Z" transform="translate(30.14 98.5)"/><path class="cls-3" d="M266.72,566.6h-.07a.26.26,0,0,1-.19-.32,78.23,78.23,0,0,1,6.3-15.09.26.26,0,1,1,.46.25,77.67,77.67,0,0,0-6.25,15A.26.26,0,0,1,266.72,566.6Z" transform="translate(30.14 98.5)"/><path class="cls-3" d="M251.33,579.3l-.43-1.11a37,37,0,0,1,15.57-2l-.13,1.19C266.25,577.41,258.34,576.58,251.33,579.3Z" transform="translate(30.14 98.5)"/><path class="cls-3" d="M257.77,576.86s-13.88-6.73-20.19,4.21c0,0,7,5.54,13.69,1.62S257.77,576.86,257.77,576.86Z" transform="translate(30.14 98.5)"/><path class="cls-3" d="M241.7,579.78a.26.26,0,0,1-.07-.52,78.29,78.29,0,0,1,16.13-2.67c.14,0,.27.11.27.26a.26.26,0,0,1-.25.27,77.64,77.64,0,0,0-16,2.65Z" transform="translate(30.14 98.5)"/><path class="cls-3" d="M275.51,591.74c-.06-.24-1.44-5.94,5.28-18.54l1.06.56c-6.46,12.1-5.19,17.62-5.18,17.67Z" transform="translate(30.14 98.5)"/><path class="cls-3" d="M277.61,581s-3.76-16.87,9.79-20.93c0,0,4.24,9-1.75,15.35S277.61,581,277.61,581Z" transform="translate(30.14 98.5)"/><path class="cls-3" d="M277.61,581.33h-.08a.29.29,0,0,1-.21-.36,87.76,87.76,0,0,1,7.05-16.9.3.3,0,0,1,.52.28,87.21,87.21,0,0,0-7,16.77A.3.3,0,0,1,277.61,581.33Z" transform="translate(30.14 98.5)"/><path class="cls-3" d="M260.34,595.5l-.43-1.11A39.46,39.46,0,0,1,277,592.23l-.14,1.19A39,39,0,0,0,260.34,595.5Z" transform="translate(30.14 98.5)"/><path class="cls-3" d="M267.58,592.83S252,585.29,245,597.55c0,0,7.83,6.2,15.34,1.82S267.58,592.83,267.58,592.83Z" transform="translate(30.14 98.5)"/><path class="cls-3" d="M249.58,596.1a.3.3,0,0,1-.08-.58,87.72,87.72,0,0,1,18.07-3h0a.3.3,0,0,1,0,.59,87.16,87.16,0,0,0-17.93,3Z" transform="translate(30.14 98.5)"/><path class="cls-3" d="M283.71,606.6c0-.22-.81-5.56,8.08-18.36l1,.68c-8.53,12.29-7.89,17.43-7.89,17.48Z" transform="translate(30.14 98.5)"/><path class="cls-3" d="M287.3,596.3s-1.94-18.78,13.28-21.47c0,0,3.45,10.35-3.85,16.43S287.3,596.3,287.3,596.3Z" transform="translate(30.14 98.5)"/><path class="cls-3" d="M287.3,596.62l-.12,0a.32.32,0,0,1-.18-.42,95.81,95.81,0,0,1,9.8-17.44.32.32,0,1,1,.53.37,95.05,95.05,0,0,0-9.73,17.31A.32.32,0,0,1,287.3,596.62Z" transform="translate(30.14 98.5)"/><path class="cls-3" d="M266.7,609.75l-.3-1.16c9.24-2.39,18.74-.26,19.14-.16l-.27,1.17C285.18,609.57,275.65,607.43,266.7,609.75Z" transform="translate(30.14 98.5)"/><path class="cls-3" d="M274.91,607.82s-15.92-10.16-25.15,2.24c0,0,7.71,7.73,16.42,3.92S274.91,607.82,274.91,607.82Z" transform="translate(30.14 98.5)"/><path class="cls-3" d="M255,609.08a.32.32,0,0,1,0-.64,95.76,95.76,0,0,1,20-.94.32.32,0,0,1,.29.35.32.32,0,0,1-.35.29,95.27,95.27,0,0,0-19.84.94Z" transform="translate(30.14 98.5)"/><path class="cls-3" d="M292.71,628c0-.29-.87-7.18,8.79-21.09l1,.68c-9.4,13.53-8.6,20.18-8.59,20.24Z" transform="translate(30.14 98.5)"/><path class="cls-3" d="M296.56,615.68S294.45,595.22,311,592.3c0,0,3.76,11.28-4.2,17.9S296.56,615.68,296.56,615.68Z" transform="translate(30.14 98.5)"/><path class="cls-3" d="M296.56,616l-.13,0a.35.35,0,0,1-.2-.46,104.53,104.53,0,0,1,10.68-19,.35.35,0,0,1,.57.4,103.61,103.61,0,0,0-10.6,18.85A.35.35,0,0,1,296.56,616Z" transform="translate(30.14 98.5)"/><path class="cls-3" d="M274.12,630.27l-.3-1.16a46.14,46.14,0,0,1,20.21-.19l-.28,1.16A45.67,45.67,0,0,0,274.12,630.27Z" transform="translate(30.14 98.5)"/><path class="cls-3" d="M283.07,628.22s-17.33-11.06-27.38,2.44c0,0,8.39,8.42,17.88,4.27S283.07,628.22,283.07,628.22Z" transform="translate(30.14 98.5)"/><path class="cls-3" d="M261.39,629.59a.35.35,0,0,1-.05-.7,104.72,104.72,0,0,1,21.76-1,.35.35,0,0,1,.32.38.36.36,0,0,1-.38.32,103.42,103.42,0,0,0-21.6,1Z" transform="translate(30.14 98.5)"/><path class="cls-3" d="M300.08,647.75l-1.19-.09c0-.26.59-6.55,13.36-17.7l.79.9C300.73,641.61,300.09,647.69,300.08,647.75Z" transform="translate(30.14 98.5)"/><path class="cls-3" d="M305.33,637.25s2.93-20.35,19.72-19.16c0,0,.9,11.85-8.42,16.34S305.33,637.25,305.33,637.25Z" transform="translate(30.14 98.5)"/><path class="cls-3" d="M305.33,637.6A.35.35,0,0,1,305,637a104.32,104.32,0,0,1,15-15.83.35.35,0,0,1,.46.53,103.62,103.62,0,0,0-14.86,15.71A.35.35,0,0,1,305.33,637.6Z" transform="translate(30.14 98.5)"/><path class="cls-3" d="M299.48,650.6c-.09,0-9.24-4.66-19.2-4.66H280v-1.2a47.79,47.79,0,0,1,20,4.79Z" transform="translate(30.14 98.5)"/><path class="cls-3" d="M289.19,646.14S275.07,631.2,262,641.85c0,0,6.09,10.2,16.3,8.49S289.19,646.14,289.19,646.14Z" transform="translate(30.14 98.5)"/><path class="cls-3" d="M289.19,646.49l-.11,0a103.69,103.69,0,0,0-21.2-4.26.35.35,0,0,1-.31-.38.36.36,0,0,1,.38-.31,104.37,104.37,0,0,1,21.36,4.3.35.35,0,0,1-.11.68Z" transform="translate(30.14 98.5)"/><path class="cls-3" d="M303.86,667.75l-1.17-.23c.06-.28,1.53-7.07,15.23-17l.7,1C305.38,661.09,303.87,667.69,303.86,667.75Z" transform="translate(30.14 98.5)"/><path class="cls-3" d="M310.37,657.13s4.73-20,21.34-17.33c0,0-.16,11.88-9.84,15.52S310.37,657.13,310.37,657.13Z" transform="translate(30.14 98.5)"/><path class="cls-3" d="M310.37,657.48a.35.35,0,0,1-.23-.09.35.35,0,0,1,0-.49,104.35,104.35,0,0,1,16.32-14.43.35.35,0,1,1,.41.57,103.72,103.72,0,0,0-16.2,14.32A.35.35,0,0,1,310.37,657.48Z" transform="translate(30.14 98.5)"/><path class="cls-3" d="M303.16,669.76c-.09-.05-8.73-5.41-18.77-6.22l.1-1.19a47.68,47.68,0,0,1,19.31,6.4Z" transform="translate(30.14 98.5)"/><path class="cls-3" d="M293.51,664.55s-12.74-16.14-26.67-6.69c0,0,5.16,10.71,15.48,9.91S293.51,664.55,293.51,664.55Z" transform="translate(30.14 98.5)"/><path class="cls-3" d="M293.51,664.9a.35.35,0,0,1-.14,0,103.79,103.79,0,0,0-20.74-6.13.35.35,0,0,1-.28-.41.34.34,0,0,1,.41-.28,104.35,104.35,0,0,1,20.89,6.18.35.35,0,0,1-.14.67Z" transform="translate(30.14 98.5)"/><path class="cls-3" d="M233.17,546s-14.41-.27-15-12c0,0,8.16-1.66,12.09,4.44S233.17,546,233.17,546Z" transform="translate(30.14 98.5)"/><path class="cls-3" d="M233.17,546.28a.24.24,0,0,1-.12,0,73.18,73.18,0,0,1-12.31-9,.25.25,0,0,1,.33-.37,72.55,72.55,0,0,0,12.21,9,.25.25,0,0,1-.12.46Z" transform="translate(30.14 98.5)"/><path class="cls-6" d="M286.9,669.73a47.83,47.83,0,0,1-53.59,21.88c-7.34-2-12.08-5.45-7.66-11.63,11.17-15.6,23.95-14,23.95-14s-38-3.93-39.55-19.52,27.58-1.19,27.58-1.19-36.33-41.13-13.33-48.86,24.84,42.75,24.84,42.75,13.4-24.1,24.89-17.22-12.12,35.53-12.12,35.53,26.55-20.57,29.23-5.45C292.15,657.68,290.34,663.82,286.9,669.73Z" transform="translate(30.14 98.5)"/><path class="cls-12" d="M266.24,687.42s-39-74-40.47-89.9" transform="translate(30.14 98.5)"/><polyline class="cls-12" points="272.71 775.92 292.11 777.71 305.09 761.1"/><polyline class="cls-12" points="252.86 747.54 280.51 754.75 298.26 729.45"/><polyline class="cls-12" points="261.45 733.59 271.17 736.29 276.23 727.93"/><polyline class="cls-12" points="255.25 719.57 265.37 722.64 270.22 712.98"/><polyline class="cls-12" points="250.19 705.3 259.14 707.48 264.57 699.29"/><path class="cls-13" d="M278.68,752.48H401.16a0,0,0,0,1,0,0V833a0,0,0,0,1,0,0H278.68a21.58,21.58,0,0,1-21.58-21.58V774.06A21.58,21.58,0,0,1,278.68,752.48Z"/><path class="cls-14" d="M290.76,768.92h99.19a0,0,0,0,1,0,0v50.44a0,0,0,0,1,0,0H290.76a13.52,13.52,0,0,1-13.52-13.52V782.44A13.52,13.52,0,0,1,290.76,768.92Z"/><path class="cls-13" d="M382.49,752.48H599.62a4.79,4.79,0,0,1,4.79,4.79V828.2a4.79,4.79,0,0,1-4.79,4.79H382.49a21.58,21.58,0,0,1-21.58-21.58V774.06A21.58,21.58,0,0,1,382.49,752.48Z"/><path class="cls-4" d="M363,726.56c-12.42,0-22.52-14.5-22.52-32.33S350.54,661.9,363,661.9H574.28v64.66Z" transform="translate(30.14 98.5)"/><g class="cls-15"><rect class="cls-9" x="372.88" y="766.93" width="239.79" height="2.83"/><rect class="cls-9" x="369.49" y="781.75" width="252.51" height="2.83"/><rect class="cls-9" x="369.49" y="796.57" width="252.51" height="2.83"/><rect class="cls-9" x="369.49" y="811.38" width="252.51" height="2.83"/></g><rect class="cls-13" x="312.74" y="752.48" width="9.86" height="80.51"/><rect class="cls-13" x="328.66" y="752.48" width="2.75" height="80.51"/><path class="cls-16" d="M350.38,673.57H472.86a0,0,0,0,1,0,0v80.51a0,0,0,0,1,0,0H350.38a21.58,21.58,0,0,1-21.58-21.58V695.15A21.58,21.58,0,0,1,350.38,673.57Z"/><path class="cls-17" d="M362.46,690h99.19a0,0,0,0,1,0,0v50.44a0,0,0,0,1,0,0H362.46a13.52,13.52,0,0,1-13.52-13.52V703.52A13.52,13.52,0,0,1,362.46,690Z"/><path class="cls-16" d="M454.19,673.57H671.32a4.79,4.79,0,0,1,4.79,4.79v70.92a4.79,4.79,0,0,1-4.79,4.79H454.19a21.58,21.58,0,0,1-21.58-21.58V695.15A21.58,21.58,0,0,1,454.19,673.57Z"/><path class="cls-4" d="M434.66,647.65c-12.42,0-22.52-14.5-22.52-32.33S422.24,583,434.66,583H646v64.66Z" transform="translate(30.14 98.5)"/><g class="cls-18"><rect class="cls-9" x="444.59" y="688.02" width="239.79" height="2.83"/><rect class="cls-9" x="441.19" y="702.84" width="252.51" height="2.83"/><rect class="cls-9" x="441.19" y="717.65" width="252.51" height="2.83"/><rect class="cls-9" x="441.19" y="732.47" width="252.51" height="2.83"/></g><path class="cls-19" d="M732.76,703.76S723,578.07,634,527.11" transform="translate(30.14 98.5)"/><path class="cls-19" d="M649.53,537.43s-1.91-7.15,3.37-21.94" transform="translate(30.14 98.5)"/><path class="cls-6" d="M650.07,524.36s-6.86-17.83,7.3-24.48c0,0,6.11,9.2.58,17.07S650.07,524.36,650.07,524.36Z" transform="translate(30.14 98.5)"/><path class="cls-20" d="M650.07,524.36A95.67,95.67,0,0,1,655,504.8" transform="translate(30.14 98.5)"/><path class="cls-19" d="M649.53,537.43a38.49,38.49,0,0,0-16.32,5" transform="translate(30.14 98.5)"/><path class="cls-6" d="M641,538.88s-18.23-5.71-24,8.84c0,0,9.57,5.51,17.07-.5S641,538.88,641,538.88Z" transform="translate(30.14 98.5)"/><path class="cls-20" d="M641,538.88a95.66,95.66,0,0,0-19.2,6.18" transform="translate(30.14 98.5)"/><path class="cls-19" d="M664.9,550.13s-2.78-6.51,3.09-23" transform="translate(30.14 98.5)"/><path class="cls-6" d="M664.85,537s-7.62-19.83,8.12-27.22c0,0,6.79,10.23.64,19S664.85,537,664.85,537Z" transform="translate(30.14 98.5)"/><path class="cls-21" d="M664.85,537a106.38,106.38,0,0,1,5.5-21.74" transform="translate(30.14 98.5)"/><path class="cls-19" d="M665.92,551.42a48.6,48.6,0,0,0-19.82,5.68" transform="translate(30.14 98.5)"/><path class="cls-6" d="M654.77,553.18s-20.27-6.35-26.65,9.82c0,0,10.64,6.13,19-.56S654.77,553.18,654.77,553.18Z" transform="translate(30.14 98.5)"/><path class="cls-21" d="M654.77,553.18a106.38,106.38,0,0,0-21.35,6.87" transform="translate(30.14 98.5)"/><path class="cls-19" d="M680.95,569.09s-1.73-6.59,6.19-21.43" transform="translate(30.14 98.5)"/><path class="cls-6" d="M682.75,556.6s-4.45-20,11.58-24.77c0,0,5,10.7-2.07,18.17S682.75,556.6,682.75,556.6Z" transform="translate(30.14 98.5)"/><path class="cls-22" d="M682.75,556.6a102.41,102.41,0,0,1,8.32-19.92" transform="translate(30.14 98.5)"/><path class="cls-19" d="M682.32,570.51s-10.67-1.18-20.27,2.55" transform="translate(30.14 98.5)"/><path class="cls-6" d="M670.87,570.56s-18.41-8.92-26.77,5.58c0,0,9.27,7.34,18.16,2.15S670.87,570.56,670.87,570.56Z" transform="translate(30.14 98.5)"/><path class="cls-22" d="M670.87,570.56a102.42,102.42,0,0,0-21.3,3.52" transform="translate(30.14 98.5)"/><path class="cls-19" d="M695.16,590.08s-1.93-7.39,6.93-24" transform="translate(30.14 98.5)"/><path class="cls-6" d="M697.18,576.1s-5-22.36,13-27.75c0,0,5.62,12-2.32,20.35S697.18,576.1,697.18,576.1Z" transform="translate(30.14 98.5)"/><path class="cls-23" d="M697.18,576.1a114.72,114.72,0,0,1,9.32-22.32" transform="translate(30.14 98.5)"/><path class="cls-19" d="M696.24,591.73s-11.49-1.37-22.24,2.8" transform="translate(30.14 98.5)"/><path class="cls-6" d="M683.88,591.73s-20.62-10-30,6.26c0,0,10.38,8.22,20.34,2.41S683.88,591.73,683.88,591.73Z" transform="translate(30.14 98.5)"/><path class="cls-23" d="M683.88,591.73A114.72,114.72,0,0,0,660,595.67" transform="translate(30.14 98.5)"/><path class="cls-19" d="M706,609.85s-1.15-6.85,10.59-23.76" transform="translate(30.14 98.5)"/><path class="cls-6" d="M710,596.34s-2.57-24.9,17.61-28.47c0,0,4.57,13.73-5.11,21.79S710,596.34,710,596.34Z" transform="translate(30.14 98.5)"/><path class="cls-24" d="M710,596.34a125.36,125.36,0,0,1,12.95-23" transform="translate(30.14 98.5)"/><path class="cls-19" d="M707.52,613.18s-12.81-3-25,.21" transform="translate(30.14 98.5)"/><path class="cls-6" d="M693.6,611.61s-21.1-13.46-33.34,3c0,0,10.22,10.25,21.77,5.2S693.6,611.61,693.6,611.61Z" transform="translate(30.14 98.5)"/><path class="cls-24" d="M693.6,611.61a125.36,125.36,0,0,0-26.4,1.24" transform="translate(30.14 98.5)"/><path class="cls-19" d="M718,638.27s-1.26-9,11.52-27.4" transform="translate(30.14 98.5)"/><path class="cls-6" d="M722.3,622s-2.8-27.12,19.18-31c0,0,5,14.95-5.56,23.73S722.3,622,722.3,622Z" transform="translate(30.14 98.5)"/><path class="cls-25" d="M722.3,622a136.51,136.51,0,0,1,14.1-25.09" transform="translate(30.14 98.5)"/><path class="cls-19" d="M718.77,640.34s-13.13-3.19-26.41.26" transform="translate(30.14 98.5)"/><path class="cls-11" d="M704.42,638.65s-23-14.66-36.31,3.24c0,0,11.13,11.16,23.7,5.67S704.42,638.65,704.42,638.65Z" transform="translate(30.14 98.5)"/><path class="cls-25" d="M704.42,638.65A136.51,136.51,0,0,0,675.67,640" transform="translate(30.14 98.5)"/><path class="cls-19" d="M726.18,664.49s.57-8.18,17.44-22.93" transform="translate(30.14 98.5)"/><path class="cls-6" d="M733.93,650.63s3.88-27,26.14-25.4c0,0,1.2,15.71-11.17,21.66S733.93,650.63,733.93,650.63Z" transform="translate(30.14 98.5)"/><path class="cls-25" d="M733.93,650.63a136.51,136.51,0,0,1,19.78-20.9" transform="translate(30.14 98.5)"/><path class="cls-19" d="M726.54,667.62s-12.46-6.37-26.18-6.26" transform="translate(30.14 98.5)"/><path class="cls-11" d="M712.53,662.41s-18.73-19.81-36-5.69c0,0,8.08,13.53,21.61,11.26S712.53,662.41,712.53,662.41Z" transform="translate(30.14 98.5)"/><path class="cls-25" d="M712.53,662.41a136.52,136.52,0,0,0-28.21-5.68" transform="translate(30.14 98.5)"/><path class="cls-19" d="M731.2,690.91s1.76-8.91,19.88-22.1" transform="translate(30.14 98.5)"/><path class="cls-11" d="M740.62,677s6.27-26.53,28.3-23c0,0-.21,15.76-13.05,20.58S740.62,677,740.62,677Z" transform="translate(30.14 98.5)"/><path class="cls-25" d="M740.62,677a136.51,136.51,0,0,1,21.56-19.06" transform="translate(30.14 98.5)"/><path class="cls-19" d="M731.47,693s-11.57-7.26-25.24-8.37" transform="translate(30.14 98.5)"/><path class="cls-11" d="M718.26,686.81s-16.89-21.4-35.36-8.87c0,0,6.84,14.19,20.52,13.14S718.26,686.81,718.26,686.81Z" transform="translate(30.14 98.5)"/><path class="cls-25" d="M718.26,686.81a136.51,136.51,0,0,0-27.6-8.17" transform="translate(30.14 98.5)"/><path class="cls-6" d="M638.26,529.68s-19.1-.35-19.94-16c0,0,10.82-2.2,16,5.88S638.26,529.68,638.26,529.68Z" transform="translate(30.14 98.5)"/><path class="cls-20" d="M638.26,529.68A95.67,95.67,0,0,1,622,517.75" transform="translate(30.14 98.5)"/><path class="cls-13" d="M802.48,697c-32.46,12-69.15.33-89.25-27.82-7.13-10-9.45-19.21,2.42-22.36,29.95-8,44.23,7.17,44.23,7.17S716.6,610,730.68,589s35.59,26.87,35.59,26.87-3-88.59,33.62-74.57-13,78.8-13,78.8,41.46-16.25,48.71,4.13S784,656,784,656s54.22,1.67,42,23.26C821.43,687.36,812.85,693.15,802.48,697Z" transform="translate(30.14 98.5)"/><path class="cls-26" d="M758.57,697.78s27.43-132.27,42-153.59" transform="translate(30.14 98.5)"/><polyline class="cls-26" points="769.5 759.51 791.83 781.67 825.08 774.32"/><polyline class="cls-26" points="773.95 703.74 800.98 741.14 849.1 727.86"/><polyline class="cls-26" points="798.99 695.19 808.32 708.53 823.21 703.33"/><polyline class="cls-26" points="805.68 671.35 815.12 685.58 831.1 678.52"/><polyline class="cls-26" points="814.03 648.38 822.94 660.28 838.13 655.66"/><path class="cls-11" d="M725.11,668.69a47.83,47.83,0,0,1-53.91,21.08c-7.31-2.07-12-5.63-7.48-11.75,11.4-15.43,24.15-13.65,24.15-13.65s-37.92-4.49-39.25-20.1,27.6-.78,27.6-.78-35.71-41.67-12.6-49.06,24.2,43.12,24.2,43.12S701.58,613.66,713,620.7,700.32,656,700.32,656s26.86-20.17,29.31-5C730.55,656.71,728.64,662.83,725.11,668.69Z" transform="translate(30.14 98.5)"/><path class="cls-12" d="M704.19,686.06s-37.91-74.55-39.12-90.49" transform="translate(30.14 98.5)"/><polyline class="cls-12" points="710.82 774.22 730.18 776.29 743.42 759.88"/><polyline class="cls-12" points="691.39 745.54 718.93 753.16 737.05 728.13"/><polyline class="cls-12" points="700.19 731.72 709.86 734.56 715.05 726.28"/><polyline class="cls-12" points="694.2 717.61 704.27 720.83 709.27 711.24"/><polyline class="cls-12" points="689.35 703.27 698.26 705.58 703.82 697.47"/><rect class="cls-6" x="524.79" y="769.42" width="345.65" height="64.23" rx="6.97" ry="6.97"/><path class="cls-27" d="M828.51,723.7H506.45a11.8,11.8,0,0,1-11.8-11.8v11.45a11.8,11.8,0,0,0,11.8,11.8H828.51a11.8,11.8,0,0,0,11.8-11.8V711.9A11.8,11.8,0,0,1,828.51,723.7Z" transform="translate(30.14 98.5)"/><rect class="cls-28" x="541.61" y="769.42" width="1.71" height="29.63"/><rect class="cls-28" x="563.27" y="769.42" width="1.71" height="29.63"/><rect class="cls-28" x="544.76" y="769.42" width="1.71" height="14.82"/><rect class="cls-28" x="548.56" y="769.42" width="1.71" height="14.82"/><rect class="cls-28" x="552.36" y="769.42" width="1.71" height="14.82"/><rect class="cls-28" x="556.16" y="769.42" width="1.71" height="14.82"/><rect class="cls-28" x="559.97" y="769.42" width="1.71" height="14.82"/><rect class="cls-28" x="585.21" y="769.42" width="1.71" height="29.63"/><rect class="cls-28" x="566.7" y="769.42" width="1.71" height="14.82"/><rect class="cls-28" x="570.51" y="769.42" width="1.71" height="14.82"/><rect class="cls-28" x="574.31" y="769.42" width="1.71" height="14.82"/><rect class="cls-28" x="578.11" y="769.42" width="1.71" height="14.82"/><rect class="cls-28" x="581.92" y="769.42" width="1.71" height="14.82"/><rect class="cls-28" x="607.62" y="769.42" width="1.71" height="29.63"/><rect class="cls-28" x="589.11" y="769.42" width="1.71" height="14.82"/><rect class="cls-28" x="592.92" y="769.42" width="1.71" height="14.82"/><rect class="cls-28" x="596.72" y="769.42" width="1.71" height="14.82"/><rect class="cls-28" x="600.52" y="769.42" width="1.71" height="14.82"/><rect class="cls-28" x="604.33" y="769.42" width="1.71" height="14.82"/><rect class="cls-28" x="629.57" y="769.42" width="1.71" height="29.63"/><rect class="cls-28" x="611.06" y="769.42" width="1.71" height="14.82"/><rect class="cls-28" x="614.87" y="769.42" width="1.71" height="14.82"/><rect class="cls-28" x="618.67" y="769.42" width="1.71" height="14.82"/><rect class="cls-28" x="622.47" y="769.42" width="1.71" height="14.82"/><rect class="cls-28" x="626.27" y="769.42" width="1.71" height="14.82"/><rect class="cls-28" x="652.1" y="769.42" width="1.71" height="29.63"/><rect class="cls-28" x="633.59" y="769.42" width="1.71" height="14.82"/><rect class="cls-28" x="637.4" y="769.42" width="1.71" height="14.82"/><rect class="cls-28" x="641.2" y="769.42" width="1.71" height="14.82"/><rect class="cls-28" x="645" y="769.42" width="1.71" height="14.82"/><rect class="cls-28" x="648.81" y="769.42" width="1.71" height="14.82"/><rect class="cls-28" x="674.05" y="769.42" width="1.71" height="29.63"/><rect class="cls-28" x="655.54" y="769.42" width="1.71" height="14.82"/><rect class="cls-28" x="659.34" y="769.42" width="1.71" height="14.82"/><rect class="cls-28" x="663.15" y="769.42" width="1.71" height="14.82"/><rect class="cls-28" x="666.95" y="769.42" width="1.71" height="14.82"/><rect class="cls-28" x="670.75" y="769.42" width="1.71" height="14.82"/><rect class="cls-28" x="696.46" y="769.42" width="1.71" height="29.63"/><rect class="cls-28" x="677.95" y="769.42" width="1.71" height="14.82"/><rect class="cls-28" x="681.75" y="769.42" width="1.71" height="14.82"/><rect class="cls-28" x="685.56" y="769.42" width="1.71" height="14.82"/><rect class="cls-28" x="689.36" y="769.42" width="1.71" height="14.82"/><rect class="cls-28" x="693.16" y="769.42" width="1.71" height="14.82"/><rect class="cls-28" x="718.41" y="769.42" width="1.71" height="29.63"/><rect class="cls-28" x="699.9" y="769.42" width="1.71" height="14.82"/><rect class="cls-28" x="703.7" y="769.42" width="1.71" height="14.82"/><rect class="cls-28" x="707.51" y="769.42" width="1.71" height="14.82"/><rect class="cls-28" x="711.31" y="769.42" width="1.71" height="14.82"/><rect class="cls-28" x="715.11" y="769.42" width="1.71" height="14.82"/><rect class="cls-28" x="741.13" y="769.42" width="1.71" height="29.63"/><rect class="cls-28" x="722.61" y="769.42" width="1.71" height="14.82"/><rect class="cls-28" x="726.42" y="769.42" width="1.71" height="14.82"/><rect class="cls-28" x="730.22" y="769.42" width="1.71" height="14.82"/><rect class="cls-28" x="734.02" y="769.42" width="1.71" height="14.82"/><rect class="cls-28" x="737.83" y="769.42" width="1.71" height="14.82"/><rect class="cls-28" x="763.07" y="769.42" width="1.71" height="29.63"/><rect class="cls-28" x="744.56" y="769.42" width="1.71" height="14.82"/><rect class="cls-28" x="748.37" y="769.42" width="1.71" height="14.82"/><rect class="cls-28" x="752.17" y="769.42" width="1.71" height="14.82"/><rect class="cls-28" x="755.97" y="769.42" width="1.71" height="14.82"/><rect class="cls-28" x="759.78" y="769.42" width="1.71" height="14.82"/><rect class="cls-28" x="785.48" y="769.42" width="1.71" height="29.63"/><rect class="cls-28" x="766.97" y="769.42" width="1.71" height="14.82"/><rect class="cls-28" x="770.78" y="769.42" width="1.71" height="14.82"/><rect class="cls-28" x="774.58" y="769.42" width="1.71" height="14.82"/><rect class="cls-28" x="778.38" y="769.42" width="1.71" height="14.82"/><rect class="cls-28" x="782.19" y="769.42" width="1.71" height="14.82"/><rect class="cls-28" x="807.43" y="769.42" width="1.71" height="29.63"/><rect class="cls-28" x="788.92" y="769.42" width="1.71" height="14.82"/><rect class="cls-28" x="792.72" y="769.42" width="1.71" height="14.82"/><rect class="cls-28" x="796.53" y="769.42" width="1.71" height="14.82"/><rect class="cls-28" x="800.33" y="769.42" width="1.71" height="14.82"/><rect class="cls-28" x="804.13" y="769.42" width="1.71" height="14.82"/><rect class="cls-28" x="829.96" y="769.42" width="1.71" height="29.63"/><rect class="cls-28" x="811.45" y="769.42" width="1.71" height="14.82"/><rect class="cls-28" x="815.25" y="769.42" width="1.71" height="14.82"/><rect class="cls-28" x="819.06" y="769.42" width="1.71" height="14.82"/><rect class="cls-28" x="822.86" y="769.42" width="1.71" height="14.82"/><rect class="cls-28" x="826.66" y="769.42" width="1.71" height="14.82"/><rect class="cls-28" x="851.91" y="769.42" width="1.71" height="29.63"/><rect class="cls-28" x="833.4" y="769.42" width="1.71" height="14.82"/><rect class="cls-28" x="837.2" y="769.42" width="1.71" height="14.82"/><rect class="cls-28" x="841.01" y="769.42" width="1.71" height="14.82"/><rect class="cls-28" x="844.81" y="769.42" width="1.71" height="14.82"/><rect class="cls-28" x="848.61" y="769.42" width="1.71" height="14.82"/><rect class="cls-29" x="159.86" y="377.71" width="305.75" height="171.22" rx="9.55" ry="9.55"/><rect class="cls-4" x="202.57" y="217.52" width="160.07" height="294.6" rx="4.55" ry="4.55" transform="translate(677.56 180.72) rotate(90)"/><rect class="cls-30" x="202.47" y="403.05" width="220.55" height="120.55" rx="9.13" ry="9.13"/><circle class="cls-31" cx="312.54" cy="460.72" r="42.14"/><polygon class="cls-4" points="296.93 438.6 296.93 482.84 340.44 460.72 296.93 438.6"/><path class="cls-29" d="M176.9,371.39h33.79a3.39,3.39,0,0,1,3.39,3.39v2.93a0,0,0,0,1,0,0H173.51a0,0,0,0,1,0,0v-2.93A3.39,3.39,0,0,1,176.9,371.39Z"/><path class="cls-29" d="M217.46,371.39h33.79a3.39,3.39,0,0,1,3.39,3.39v2.93a0,0,0,0,1,0,0H214.08a0,0,0,0,1,0,0v-2.93A3.39,3.39,0,0,1,217.46,371.39Z"/><path class="cls-29" d="M477.75,353.25s4.63,82.2-23.66,58.36,6.54-52.31,6.54-52.31-8.5-10.67-6.12-22.06,12.61-9.8,12.61-9.8Z" transform="translate(30.14 98.5)"/><path class="cls-32" d="M457.78,389.86s-3.72-19.78,11.48-20.78C469.26,369.08,466.73,383.06,457.78,389.86Z" transform="translate(30.14 98.5)"/><path class="cls-32" d="M459.52,369.85c-10,1.82-34.21,6.49-40.94,10.19,0,0-19.9-13.73-34-17.82l-4.31,5.95s27,18.14,38.3,22.06c0,0,38.33-3.3,49.09-7.22,7.38-2.68,10.29-8.41,6.2-12.73C471.86,368.15,462.41,369.32,459.52,369.85Z" transform="translate(30.14 98.5)"/><polygon class="cls-32" points="571.62 612.36 587.87 617.84 584.87 623.49 571.62 617.93 571.62 612.36"/><path class="cls-10" d="M556.74,518.85l-2.12,5.53c-.08.22-.08,0-.08.22L554,539.06a1.91,1.91,0,0,0,3.58.93l8.68-15.56a1.91,1.91,0,0,0-1.06-2.74Z" transform="translate(30.14 98.5)"/><polygon class="cls-32" points="497.25 647.06 497.07 664.21 490.77 663.1 491.96 648.78 497.25 647.06"/><path class="cls-10" d="M467.09,564.62l-5.92-.31c-.23,0,0-.08-.23,0L447,568.24a1.91,1.91,0,0,0,.22,3.69l17.48,3.44a1.91,1.91,0,0,0,2.28-1.85Z" transform="translate(30.14 98.5)"/><path class="cls-10" d="M500.53,432.54S507.83,443.07,503,484c0,0,25.33,18,45.8,31.67v7.8S506.37,509.33,491.27,501c0,0-10.72-25.33-10.72-39.46a37,37,0,0,1-4.4,17.19,41.31,41.31,0,0,0-5.24,18.37l-2.05,62.37h-8.77s-15.1-108.64,4.38-127Z" transform="translate(30.14 98.5)"/><path class="cls-6" d="M470.66,368.89l20.48-.55a71,71,0,0,1,9.46.63,9.61,9.61,0,0,0,1,.05,1.27,1.27,0,0,1,.23.06c-1.83,4.49-5.23,15.74-1,30.16a49,49,0,0,0,5.4,35.23c4.15,7.07-15.26,11.28-23.06,12.08-8.11.83-18.08-2.44-22.65-9.57a4.68,4.68,0,0,1,0-5.09c2.65-4.06,7.17-14,1-28.67-4.49-10.59-4.14-6.53-3.77-13.34,5.37-4.47,6.25-9.72,6.24-14A6.87,6.87,0,0,1,470.66,368.89Z" transform="translate(30.14 98.5)"/><path class="cls-32" d="M501.63,369a119.06,119.06,0,0,1,29.05,30.07,6.55,6.55,0,0,1,.41,6.59c-3.6,7-12.53,19.4-24.31,30.19l-2.84-2.5a3.28,3.28,0,0,1-.44-4.46c3.8-5,12.58-16.3,18.44-22.88,0,0-20.85-19-23-25.6C498.89,380.44,494.43,385.47,501.63,369Z" transform="translate(30.14 98.5)"/><path class="cls-32" d="M500.85,399.23a21.35,21.35,0,0,0,4.58-17.94c-2.05-11-3.79-12.27-3.79-12.27S492.57,380.2,500.85,399.23Z" transform="translate(30.14 98.5)"/><path class="cls-33" d="M486.15,346.91l.63,17.05a16.67,16.67,0,0,1-2.15,9.14,11.73,11.73,0,0,1-3.69,4,5,5,0,0,1-7-1.93h0a5,5,0,0,1-.59-2.43l.22-17.58Z" transform="translate(30.14 98.5)"/><path class="cls-32" d="M490.8,343.24c-.4,8.32-7.69,19.25-16,18.85s-14.52-12-14.11-20.31a15.08,15.08,0,0,1,30.12,1.46Z" transform="translate(30.14 98.5)"/><path class="cls-29" d="M478.62,338.18s-3.69,6.54-13,8.4a5.88,5.88,0,0,1-6.83-7.26c2.19-8,8.38-18.53,25.85-11.88,26.54,10.11,15.17,32.23,15.17,32.23s25.59,16.7,12,42.79-31.74,0-31.74,0-13.54-21.09,2.15-37.63c0,0,9.37-15.59,4.47-22.22s-4.47,4.31-4.47,4.31S478.94,348.92,478.62,338.18Z" transform="translate(30.14 98.5)"/><path class="cls-32" d="M503.47,428.94s-8.27,14.16,6.75,18.78a4.46,4.46,0,0,0,5.1-1.78,4.3,4.3,0,0,0,.46-3.37c-1-4.27-7.67-1.34-7.21-4.55a17.6,17.6,0,0,1,1.72-5.48Z" transform="translate(30.14 98.5)"/><path class="cls-32" d="M387.45,372.09s-9.9.41-12.5-3.36.36-8.61.36-8.61-9.12-3.1-8.7-6.53,11,3.57,11,3.57l2.68-.25a5.11,5.11,0,0,1,4.67,2.18l5.1,4Z" transform="translate(30.14 98.5)"/><rect class="cls-34" x="729.88" y="490.29" width="8.58" height="15.58" transform="translate(205.55 -92.54) rotate(16.81)"/><path class="cls-35" d="M728.22,503S713,521.8,724.13,526.8s12.36-21.58,12.36-21.58S733,498.93,728.22,503Z" transform="translate(30.14 98.5)"/><path class="cls-35" d="M725.52,506.71s-1.27-7.78,4.31-9.09l-1.56,5.92Z" transform="translate(30.14 98.5)"/><rect class="cls-34" x="738.57" y="492.03" width="8.58" height="15.58" transform="translate(1628.65 861.97) rotate(163.19)"/><path class="cls-35" d="M748.82,504.71s15.26,18.83,4.08,23.84S740.53,507,740.53,507,744,500.67,748.82,504.71Z" transform="translate(30.14 98.5)"/><path class="cls-35" d="M751.51,508.45s1.27-7.78-4.31-9.09l1.56,5.92Z" transform="translate(30.14 98.5)"/><path class="cls-35" d="M759.57,316.32c-1.48-.73,17.46,9.43,28.73,41.21a6.45,6.45,0,0,1-2.83,7.71l-22.73,13.28-3.56-13.62,12.49-6.61-14.82-21.14S742.59,307.9,759.57,316.32Z" transform="translate(30.14 98.5)"/><path class="cls-35" d="M721.12,316.62c-6.47,4.21-18.59,15-27.51,40.12a6.47,6.47,0,0,0,2.81,7.77l22.73,13.28,3.56-13.62-12.49-6.61L725,336.43s11.51-7.3,3.9-18.38A5.7,5.7,0,0,0,721.12,316.62Z" transform="translate(30.14 98.5)"/><path class="cls-10" d="M753.4,413.32h34.78a6.73,6.73,0,0,1,6.73,6.73v77.59a0,0,0,0,1,0,0H746.67a0,0,0,0,1,0,0V420.06A6.73,6.73,0,0,1,753.4,413.32Z"/><path class="cls-36" d="M724.11,414s30.41,4.09,35.32-2.27,2.69-16.2,2.69-16.2l-43.82.11S714.13,413,724.11,414Z" transform="translate(30.14 98.5)"/><path class="cls-13" d="M738.24,497.69s-52.45-100.81-21.07-103.94c13.44-1.34,29.73,103,29.73,103Z" transform="translate(30.14 98.5)"/><path class="cls-13" d="M738.73,497.74s53.21-100.69,20.95-104c-13.81-1.41-29.85,103-29.85,103Z" transform="translate(30.14 98.5)"/><path class="cls-34" d="M741.31,327.8a7.64,7.64,0,0,1-7.64-7.64V300H749v20.12C749.41,328.37,741.31,327.8,741.31,327.8Z" transform="translate(30.14 98.5)"/><path class="cls-34" d="M758.83,290.59c0,9.59-7.77,22.57-17.36,22.57s-17.36-13-17.36-22.57a17.36,17.36,0,0,1,34.72,0Z" transform="translate(30.14 98.5)"/><path class="cls-34" d="M755.25,294.61a4.65,4.65,0,0,1,3-4.85c1.34-.43,2.76-.21,3.51,2,1.33,4,.53,9.08-2.42,10.07a2.51,2.51,0,0,1-3.16-1.7A26.55,26.55,0,0,1,755.25,294.61Z" transform="translate(30.14 98.5)"/><path class="cls-34" d="M727.69,294.61a4.65,4.65,0,0,0-3-4.85c-1.34-.43-2.76-.21-3.51,2-1.33,4-.53,9.08,2.42,10.07a2.51,2.51,0,0,0,3.16-1.7A26.55,26.55,0,0,0,727.69,294.61Z" transform="translate(30.14 98.5)"/><path class="cls-16" d="M703.07,349.15l5.7,43.11a3.88,3.88,0,0,0,3.84,3.37h56.6a3.88,3.88,0,0,0,3.82-3.22l7.43-43.11a3.88,3.88,0,0,0-3.82-4.53H706.91A3.88,3.88,0,0,0,703.07,349.15Z" transform="translate(30.14 98.5)"/><circle class="cls-4" cx="771.91" cy="468.7" r="11.37"/><path class="cls-35" d="M757.42,296.84S751.17,294,751.25,284a17.64,17.64,0,0,1-20.85,0s1.73,9.53-5.34,12.82c0,0-5.61-13,8.61-21.76,0,0,13.49-6.33,22.56,6.4A16.89,16.89,0,0,1,757.42,296.84Z" transform="translate(30.14 98.5)"/><path class="cls-35" d="M726.32,295.79s3.43,11.62,9,10c0,0,6.11-7.78,11.76.83,0,0,7.59-3.06,10.37-10.88,0,0-.12,12.22-14.32,17.24,0,0-6,1.77-12.76-6s-5.24-13.79-5.24-13.79Z" transform="translate(30.14 98.5)"/><ellipse class="cls-34" cx="771.44" cy="406.99" rx="3.41" ry="2.95"/><path class="cls-13" d="M618.45,363.37s28.25-50.89,50-34.22S641.06,350.58,618.45,363.37Z" transform="translate(30.14 98.5)"/><path class="cls-13" d="M612.15,363.69s-14.31-56.42-39.64-45.87S593.56,345.54,612.15,363.69Z" transform="translate(30.14 98.5)"/><path class="cls-13" d="M617.43,361.61s11.07-41.91,2.31-41S605.25,331.75,617.43,361.61Z" transform="translate(30.14 98.5)"/><path class="cls-6" d="M507.3,257.14s-7.5-39.85,11.6-40.61S513.73,240.23,507.3,257.14Z" transform="translate(30.14 98.5)"/><path class="cls-6" d="M504.07,260.11s-32.78-23.88-41.66-6.95S486,258.66,504.07,260.11Z" transform="translate(30.14 98.5)"/><path class="cls-6" d="M506,256.65s-12.72-27.39-17-23S486.16,246.07,506,256.65Z" transform="translate(30.14 98.5)"/><path class="cls-37" d="M685.3-51.26S562.95-2.83,701.95,84.55,768.78,398.6,929.1,307.11s0-405.61,0-405.61Z" transform="translate(30.14 98.5)"/><path class="cls-37" d="M-13.71,753.61s62.3-69.82,140.9,27.35S80.67,996.55,8.9,920.1-13.71,753.61-13.71,753.61Z" transform="translate(30.14 98.5)"/><path class="cls-37" d="M573-19.27c-12.42-10.11-29.26-13-44.6-8.36-36.35,11-114.27,41.54-72,92.83C504.74,123.92,626.76,24.52,573-19.27Z" transform="translate(30.14 98.5)"/><path class="cls-37" d="M662.92,104.29a22.07,22.07,0,0,0-5.34-19.95C645.93,71.58,618.07,45.61,605.33,73,590.73,104.43,655.51,135,662.92,104.29Z" transform="translate(30.14 98.5)"/></svg>