<svg xmlns="http://www.w3.org/2000/svg" xmlns:xlink="http://www.w3.org/1999/xlink" viewBox="0 0 566.06 572.97"><defs><style>.cls-1,.cls-12,.cls-19,.cls-20,.cls-21,.cls-22,.cls-23,.cls-24,.cls-25,.cls-26{fill:none;}.cls-2{fill:#e9bf63;opacity:0.59;}.cls-3{fill:#90ddfb;}.cls-4{fill:#fff;}.cls-5{fill:#5fa4c5;}.cls-6{fill:#edbd4c;}.cls-7{fill:#c0993f;}.cls-8{clip-path:url(#clip-path);}.cls-9{fill:#d2d2d2;}.cls-10{fill:#2b2270;}.cls-11,.cls-30,.cls-31{fill:#3a2c9e;}.cls-12,.cls-20,.cls-21,.cls-22,.cls-23,.cls-24,.cls-25,.cls-26{stroke:#fff;stroke-linecap:round;stroke-linejoin:round;}.cls-12{stroke-width:0.63px;}.cls-13{fill:#de56a5;}.cls-14{fill:#a04079;}.cls-15{clip-path:url(#clip-path-2);}.cls-16{fill:#8a84e6;}.cls-17{fill:#6d69b3;}.cls-18{clip-path:url(#clip-path-3);}.cls-19{stroke:#edbd4c;stroke-miterlimit:10;stroke-width:0.87px;}.cls-20{stroke-width:0.36px;}.cls-21{stroke-width:0.4px;}.cls-22{stroke-width:0.38px;}.cls-23{stroke-width:0.43px;}.cls-24{stroke-width:0.47px;}.cls-25{stroke-width:0.51px;}.cls-26{stroke-width:1.02px;}.cls-27{fill:#d0a645;}.cls-28{fill:#b18e3b;}.cls-29{fill:#211b51;}.cls-30{opacity:0.32;}.cls-31{opacity:0.6;}.cls-32{fill:#dca08f;}.cls-33{fill:#c58575;}.cls-34{fill:#ebb999;}.cls-35{fill:#241c5b;}.cls-36{fill:#c44c93;}.cls-37{clip-path:url(#clip-path-4);}.cls-38{fill:#cf4387;opacity:0.17;}</style><clipPath id="clip-path"><path class="cls-1" d="M143.66,341.16c-6.82,0-12.37-8-12.37-17.76s5.55-17.76,12.37-17.76H259.75v35.52Z"/></clipPath><clipPath id="clip-path-2"><path class="cls-1" d="M215.93,453.22c-6.82,0-12.37-8-12.37-17.76s5.55-17.76,12.37-17.76H332v35.52Z"/></clipPath><clipPath id="clip-path-3"><path class="cls-1" d="M255.32,409.87c-6.82,0-12.37-8-12.37-17.76s5.55-17.76,12.37-17.76H371.4v35.52Z"/></clipPath><clipPath id="clip-path-4"><rect class="cls-1" x="27.16" y="25.95" width="500" height="500"/></clipPath></defs><title>Asset 1</title><g id="Layer_2" data-name="Layer 2"><g id="OBJECTS"><path class="cls-2" d="M280.31,466.53a94.88,94.88,0,0,1,25.16.52c42.28,6.56,181.64,20.95,182.69-74.17,1.24-112.14-70-71.4-73.13-148.21s-161.7-90.28-195.83-31.49-149.07,3.3-156.52,112C55.4,431.45,96.77,487.18,280.31,466.53Z"/><path class="cls-3" d="M356.08,285.31h94A22.84,22.84,0,0,1,473,308.16V426.57a22.84,22.84,0,0,1-22.84,22.84h-94a10.93,10.93,0,0,1-10.93-10.93V296.24A10.93,10.93,0,0,1,356.08,285.31Z"/><path class="cls-4" d="M351.7,285.31h94a22.84,22.84,0,0,1,22.84,22.84V426.57a22.84,22.84,0,0,1-22.84,22.84h-94a10.93,10.93,0,0,1-10.93-10.93V296.24a10.93,10.93,0,0,1,10.93-10.93Z"/><path class="cls-3" d="M342.09,285.31h94A22.84,22.84,0,0,1,459,308.16V426.57a22.84,22.84,0,0,1-22.84,22.84h-94a10.93,10.93,0,0,1-10.93-10.93V296.24A10.93,10.93,0,0,1,342.09,285.31Z"/><path class="cls-5" d="M341.3,285.31H362a0,0,0,0,1,0,0V449.84a0,0,0,0,1,0,0H342.41a11.26,11.26,0,0,1-11.26-11.26V295.46A10.15,10.15,0,0,1,341.3,285.31Z"/><rect class="cls-5" x="362" y="318.64" width="96.96" height="13.14"/><rect class="cls-5" x="362" y="394.97" width="96.96" height="13.14"/><path class="cls-6" d="M90.54,301.28h57.55a0,0,0,0,1,0,0v44.23a0,0,0,0,1,0,0H90.54A21.58,21.58,0,0,1,69,323.93v-1.06A21.58,21.58,0,0,1,90.54,301.28Z"/><path class="cls-7" d="M93.54,310.31h48.39a0,0,0,0,1,0,0V338a0,0,0,0,1,0,0H93.54A13.52,13.52,0,0,1,80,324.5v-.66A13.52,13.52,0,0,1,93.54,310.31Z"/><path class="cls-6" d="M147.57,301.28H255a4.79,4.79,0,0,1,4.79,4.79v34.64a4.79,4.79,0,0,1-4.79,4.79H147.57A21.58,21.58,0,0,1,126,323.93v-1.06A21.58,21.58,0,0,1,147.57,301.28Z"/><path class="cls-4" d="M143.66,341.16c-6.82,0-12.37-8-12.37-17.76s5.55-17.76,12.37-17.76H259.75v35.52Z"/><g class="cls-8"><rect class="cls-9" x="132.56" y="309.22" width="131.72" height="1.55"/><rect class="cls-9" x="130.7" y="317.36" width="138.7" height="1.55"/><rect class="cls-9" x="130.7" y="325.5" width="138.7" height="1.55"/><rect class="cls-9" x="130.7" y="333.64" width="138.7" height="1.55"/></g><path class="cls-10" d="M218.95,438.26a111.2,111.2,0,0,1-58.14,16.32A112.77,112.77,0,0,1,112,443.41a16.65,16.65,0,0,1-9.34-15v-76H218.95Z"/><rect class="cls-11" x="75.13" y="344.5" width="171.36" height="25.5" rx="12.44" ry="12.44"/><rect class="cls-6" x="97.17" y="341.98" width="4.76" height="68.95"/><rect class="cls-6" x="92.79" y="403.1" width="13.53" height="27.69" rx="6.6" ry="6.6"/><path class="cls-3" d="M183.46,426.2c0-.52-4.46-52.15-40.74-72.93l.33-.57c19.13,11,29.27,30.35,34.42,44.69a124,124,0,0,1,6.65,28.76Z"/><path class="cls-3" d="M149,357.34c0-.12-.79-3.13,1.4-9.29l.62.22c-2.12,5.93-1.4,8.87-1.39,8.9Z"/><path class="cls-3" d="M149.53,351.84s-2.84-7.39,3-10.14c0,0,2.53,3.81.24,7.07S149.53,351.84,149.53,351.84Z"/><path class="cls-3" d="M149.53,352h0a.13.13,0,0,1-.12-.15,40.16,40.16,0,0,1,2.06-8.13.14.14,0,1,1,.25.09,39.93,39.93,0,0,0-2,8.07A.14.14,0,0,1,149.53,352Z"/><path class="cls-3" d="M142.7,359.6l-.33-.57a16.13,16.13,0,0,1,6.92-2.1l0,.66A15.76,15.76,0,0,0,142.7,359.6Z"/><path class="cls-3" d="M145.78,357.86s-7.55-2.37-9.93,3.66c0,0,4,2.28,7.07-.21S145.78,357.86,145.78,357.86Z"/><path class="cls-3" d="M137.82,360.55a.14.14,0,0,1-.05-.26,40.09,40.09,0,0,1,8-2.57.13.13,0,0,1,.16.11.13.13,0,0,1-.11.16,39.94,39.94,0,0,0-7.92,2.55Z"/><path class="cls-3" d="M155.37,362.65c0-.11-1.17-2.89,1.27-9.75l.62.22c-2.34,6.57-1.3,9.25-1.29,9.27Z"/><path class="cls-3" d="M155.65,357.09s-3.16-8.22,3.36-11.28c0,0,2.81,4.24.27,7.86S155.65,357.09,155.65,357.09Z"/><path class="cls-3" d="M155.65,357.24h0a.15.15,0,0,1-.13-.17,44.71,44.71,0,0,1,2.29-9,.15.15,0,0,1,.19-.09.15.15,0,0,1,.09.19,44.44,44.44,0,0,0-2.27,9A.15.15,0,0,1,155.65,357.24Z"/><path class="cls-3" d="M148,365.69l-.33-.57a20.26,20.26,0,0,1,8.36-2.4l0,.66A19.94,19.94,0,0,0,148,365.69Z"/><path class="cls-3" d="M151.48,363.79s-8.4-2.63-11,4.07c0,0,4.41,2.54,7.87-.23S151.48,363.79,151.48,363.79Z"/><path class="cls-3" d="M142.63,366.78a.15.15,0,0,1-.06-.29,44.69,44.69,0,0,1,8.88-2.86.15.15,0,0,1,.05.3,44.31,44.31,0,0,0-8.81,2.84Z"/><path class="cls-3" d="M162,370.46c0-.12-.71-2.93,2.59-9.11l.58.31c-3.16,5.91-2.54,8.61-2.54,8.64Z"/><path class="cls-3" d="M163.07,365.2s-1.85-8.27,4.8-10.26c0,0,2.08,4.43-.86,7.53S163.07,365.2,163.07,365.2Z"/><path class="cls-3" d="M163.07,365.35h0a.14.14,0,0,1-.1-.18,43,43,0,0,1,3.46-8.29.14.14,0,1,1,.26.14,42.67,42.67,0,0,0-3.43,8.22A.14.14,0,0,1,163.07,365.35Z"/><path class="cls-3" d="M154.61,372.33l-.24-.61a20.3,20.3,0,0,1,8.55-1.08l-.07.65A20,20,0,0,0,154.61,372.33Z"/><path class="cls-3" d="M158.15,371s-7.63-3.69-11.09,2.31c0,0,3.84,3,7.52.89S158.15,371,158.15,371Z"/><path class="cls-3" d="M149.32,372.59a.14.14,0,0,1,0-.28,43,43,0,0,1,8.86-1.46c.08,0,.15.06.15.14a.14.14,0,0,1-.14.15,42.65,42.65,0,0,0-8.79,1.45Z"/><path class="cls-3" d="M167.9,379.16c0-.13-.79-3.26,2.9-10.18l.58.31c-3.55,6.64-2.85,9.68-2.84,9.71Z"/><path class="cls-3" d="M169,373.28s-2.07-9.26,5.38-11.5c0,0,2.33,5-1,8.43S169,373.28,169,373.28Z"/><path class="cls-3" d="M169,373.44h0a.16.16,0,0,1-.11-.2,48.21,48.21,0,0,1,3.87-9.28.16.16,0,0,1,.29.15,47.9,47.9,0,0,0-3.85,9.21A.16.16,0,0,1,169,373.44Z"/><path class="cls-3" d="M159.56,381.22l-.24-.61a21.68,21.68,0,0,1,9.37-1.18l-.08.65A21.44,21.44,0,0,0,159.56,381.22Z"/><path class="cls-3" d="M163.54,379.76s-8.54-4.14-12.42,2.59c0,0,4.3,3.41,8.43,1S163.54,379.76,163.54,379.76Z"/><path class="cls-3" d="M153.65,381.55a.16.16,0,0,1,0-.32,48.19,48.19,0,0,1,9.92-1.64h0a.16.16,0,0,1,0,.32,47.88,47.88,0,0,0-9.85,1.63Z"/><path class="cls-3" d="M172.4,387.32c0-.12-.44-3.05,4.44-10.08l.54.37c-4.69,6.75-4.34,9.58-4.33,9.6Z"/><path class="cls-3" d="M174.37,381.66s-1.07-10.32,7.3-11.79c0,0,1.9,5.69-2.12,9S174.37,381.66,174.37,381.66Z"/><path class="cls-3" d="M174.37,381.84h-.07a.18.18,0,0,1-.1-.23,52.63,52.63,0,0,1,5.39-9.58.18.18,0,1,1,.29.2,52.21,52.21,0,0,0-5.35,9.51A.18.18,0,0,1,174.37,381.84Z"/><path class="cls-3" d="M163.06,389l-.17-.64a24.81,24.81,0,0,1,10.52-.09l-.15.64A24.61,24.61,0,0,0,163.06,389Z"/><path class="cls-3" d="M167.56,388s-8.74-5.58-13.81,1.23c0,0,4.23,4.24,9,2.16S167.56,388,167.56,388Z"/><path class="cls-3" d="M156.63,388.68a.18.18,0,0,1,0-.35,52.6,52.6,0,0,1,11-.52.18.18,0,0,1,.16.19.17.17,0,0,1-.19.16,52.33,52.33,0,0,0-10.9.51Z"/><path class="cls-3" d="M177.34,399.09c0-.16-.48-3.94,4.83-11.59l.54.37C177.55,395.31,178,399,178,399Z"/><path class="cls-3" d="M179.46,392.31s-1.16-11.24,7.94-12.84c0,0,2.06,6.19-2.31,9.83S179.46,392.31,179.46,392.31Z"/><path class="cls-3" d="M179.46,392.5h-.07a.19.19,0,0,1-.11-.25,57.42,57.42,0,0,1,5.86-10.43.19.19,0,0,1,.32.22,56.92,56.92,0,0,0-5.82,10.36A.19.19,0,0,1,179.46,392.5Z"/><path class="cls-3" d="M167.13,400.32l-.17-.64a25.34,25.34,0,0,1,11.1-.11l-.16.64A25.09,25.09,0,0,0,167.13,400.32Z"/><path class="cls-3" d="M172,399.2s-9.52-6.07-15,1.34c0,0,4.61,4.62,9.82,2.35S172,399.2,172,399.2Z"/><path class="cls-3" d="M160.14,400a.19.19,0,0,1,0-.38,57.53,57.53,0,0,1,12-.56.19.19,0,0,1,.18.21.2.2,0,0,1-.21.18,56.81,56.81,0,0,0-11.87.56Z"/><path class="cls-3" d="M181.39,409.93l-.65,0c0-.14.33-3.6,7.34-9.72l.43.5C181.75,406.55,181.39,409.89,181.39,409.93Z"/><path class="cls-3" d="M184.27,404.16s1.61-11.18,10.83-10.53c0,0,.5,6.51-4.63,9S184.27,404.16,184.27,404.16Z"/><path class="cls-3" d="M184.27,404.35a.19.19,0,0,1-.16-.31,57.3,57.3,0,0,1,8.22-8.69.19.19,0,0,1,.25.29,56.92,56.92,0,0,0-8.16,8.63A.19.19,0,0,1,184.27,404.35Z"/><path class="cls-3" d="M181.06,411.49a26.46,26.46,0,0,0-10.55-2.56h-.15v-.66a26.25,26.25,0,0,1,11,2.63Z"/><path class="cls-3" d="M175.41,409s-7.76-8.21-14.92-2.36c0,0,3.35,5.61,9,4.67S175.41,409,175.41,409Z"/><path class="cls-3" d="M175.41,409.23h-.06a57,57,0,0,0-11.65-2.34.19.19,0,0,1-.17-.21.2.2,0,0,1,.21-.17,57.33,57.33,0,0,1,11.73,2.36.19.19,0,0,1-.06.38Z"/><path class="cls-3" d="M183.47,420.91l-.64-.13c0-.16.84-3.88,8.37-9.36l.39.53C184.3,417.25,183.47,420.88,183.47,420.91Z"/><path class="cls-3" d="M187,415.08s2.6-11,11.72-9.52c0,0-.09,6.53-5.41,8.53S187,415.08,187,415.08Z"/><path class="cls-3" d="M187,415.27a.19.19,0,0,1-.13,0,.19.19,0,0,1,0-.27,57.32,57.32,0,0,1,9-7.93.19.19,0,1,1,.23.31,57,57,0,0,0-8.9,7.87A.19.19,0,0,1,187,415.27Z"/><path class="cls-3" d="M183.08,422a26,26,0,0,0-10.31-3.42l.05-.65a26.19,26.19,0,0,1,10.61,3.51Z"/><path class="cls-3" d="M177.78,419.15s-7-8.87-14.65-3.67c0,0,2.84,5.88,8.5,5.44S177.78,419.15,177.78,419.15Z"/><path class="cls-3" d="M177.78,419.34l-.08,0A57,57,0,0,0,166.31,416a.19.19,0,0,1-.15-.23.19.19,0,0,1,.23-.15,57.32,57.32,0,0,1,11.48,3.4.19.19,0,0,1-.08.37Z"/><path class="cls-3" d="M144.64,354s-7.91-.15-8.26-6.62c0,0,4.48-.91,6.64,2.44S144.64,354,144.64,354Z"/><path class="cls-3" d="M144.64,354.18l-.06,0a40.2,40.2,0,0,1-6.76-5,.14.14,0,0,1,.18-.2,39.85,39.85,0,0,0,6.71,4.93.14.14,0,0,1-.06.25Z"/><path class="cls-6" d="M174.15,422a26.27,26.27,0,0,1-29.44,12c-4-1.08-6.64-3-4.21-6.39,6.13-8.57,13.15-7.69,13.15-7.69s-20.86-2.16-21.72-10.72,15.15-.66,15.15-.66-20-22.6-7.32-26.84,13.65,23.48,13.65,23.48,7.36-13.24,13.67-9.46-6.66,19.52-6.66,19.52,14.59-11.3,16.06-3C177,415.38,176,418.75,174.15,422Z"/><path class="cls-12" d="M162.8,431.72s-21.43-40.64-22.23-49.38"/><polyline class="cls-12" points="149.81 426.23 160.46 427.21 167.59 418.08"/><polyline class="cls-12" points="138.9 410.63 154.09 414.59 163.84 400.69"/><polyline class="cls-12" points="143.62 402.97 148.96 404.45 151.74 399.86"/><polyline class="cls-12" points="140.21 395.27 145.77 396.96 148.44 391.65"/><polyline class="cls-12" points="137.43 387.43 142.35 388.63 145.33 384.13"/><path class="cls-13" d="M162.81,413.35h57.55a0,0,0,0,1,0,0v44.23a0,0,0,0,1,0,0H162.81A21.58,21.58,0,0,1,141.22,436v-1.06A21.58,21.58,0,0,1,162.81,413.35Z"/><path class="cls-14" d="M165.81,422.38H214.2a0,0,0,0,1,0,0v27.71a0,0,0,0,1,0,0H165.81a13.52,13.52,0,0,1-13.52-13.52v-.66A13.52,13.52,0,0,1,165.81,422.38Z"/><path class="cls-13" d="M219.83,413.35H327.22a4.79,4.79,0,0,1,4.79,4.79v34.64a4.79,4.79,0,0,1-4.79,4.79H219.83A21.58,21.58,0,0,1,198.25,436v-1.06A21.58,21.58,0,0,1,219.83,413.35Z"/><path class="cls-4" d="M215.93,453.22c-6.82,0-12.37-8-12.37-17.76s5.55-17.76,12.37-17.76H332v35.52Z"/><g class="cls-15"><rect class="cls-9" x="204.83" y="421.29" width="131.72" height="1.55"/><rect class="cls-9" x="202.96" y="429.43" width="138.7" height="1.55"/><rect class="cls-9" x="202.96" y="437.56" width="138.7" height="1.55"/><rect class="cls-9" x="202.96" y="445.7" width="138.7" height="1.55"/></g><rect class="cls-13" x="171.79" y="413.35" width="5.42" height="44.23"/><rect class="cls-13" x="180.54" y="413.35" width="1.51" height="44.23"/><path class="cls-16" d="M202.19,370h57.55a0,0,0,0,1,0,0v44.23a0,0,0,0,1,0,0H202.19a21.58,21.58,0,0,1-21.58-21.58v-1.06A21.58,21.58,0,0,1,202.19,370Z"/><path class="cls-17" d="M205.2,379h48.39a0,0,0,0,1,0,0v27.71a0,0,0,0,1,0,0H205.2a13.52,13.52,0,0,1-13.52-13.52v-.66A13.52,13.52,0,0,1,205.2,379Z"/><path class="cls-16" d="M259.22,370H366.61a4.79,4.79,0,0,1,4.79,4.79v34.64a4.79,4.79,0,0,1-4.79,4.79H259.22a21.58,21.58,0,0,1-21.58-21.58v-1.06A21.58,21.58,0,0,1,259.22,370Z"/><path class="cls-4" d="M255.32,409.87c-6.82,0-12.37-8-12.37-17.76s5.55-17.76,12.37-17.76H371.4v35.52Z"/><g class="cls-18"><rect class="cls-9" x="244.22" y="377.94" width="131.72" height="1.55"/><rect class="cls-9" x="242.35" y="386.08" width="138.7" height="1.55"/><rect class="cls-9" x="242.35" y="394.22" width="138.7" height="1.55"/><rect class="cls-9" x="242.35" y="402.36" width="138.7" height="1.55"/></g><path class="cls-19" d="M419.07,440.69s-5.37-69-54.23-97"/><path class="cls-19" d="M373.35,349.33s-1-3.93,1.85-12.05"/><path class="cls-6" d="M373.64,342.14s-3.77-9.8,4-13.45c0,0,3.35,5.05.32,9.38S373.64,342.14,373.64,342.14Z"/><path class="cls-20" d="M373.64,342.14a52.55,52.55,0,0,1,2.72-10.74"/><path class="cls-19" d="M373.35,349.33a21.14,21.14,0,0,0-9,2.73"/><path class="cls-6" d="M368.67,350.12s-10-3.14-13.17,4.85c0,0,5.26,3,9.38-.28S368.67,350.12,368.67,350.12Z"/><path class="cls-20" d="M368.67,350.12a52.55,52.55,0,0,0-10.55,3.39"/><path class="cls-19" d="M381.79,356.3s-1.53-3.58,1.7-12.61"/><path class="cls-6" d="M381.76,349.11s-4.19-10.89,4.46-15c0,0,3.73,5.62.35,10.43S381.76,349.11,381.76,349.11Z"/><path class="cls-21" d="M381.76,349.11a58.44,58.44,0,0,1,3-11.94"/><path class="cls-19" d="M382.35,357a26.7,26.7,0,0,0-10.89,3.12"/><path class="cls-6" d="M376.23,358s-11.14-3.49-14.64,5.4c0,0,5.85,3.37,10.43-.31S376.23,358,376.23,358Z"/><path class="cls-21" d="M376.23,358a58.43,58.43,0,0,0-11.73,3.77"/><path class="cls-19" d="M390.61,366.72s-.95-3.62,3.4-11.77"/><path class="cls-6" d="M391.59,359.86s-2.45-11,6.36-13.61c0,0,2.76,5.88-1.14,10S391.59,359.86,391.59,359.86Z"/><path class="cls-22" d="M391.59,359.86a56.25,56.25,0,0,1,4.57-10.94"/><path class="cls-19" d="M391.36,367.5a26.79,26.79,0,0,0-11.13,1.4"/><path class="cls-6" d="M385.07,367.52s-10.11-4.9-14.71,3.07c0,0,5.09,4,10,1.18S385.07,367.52,385.07,367.52Z"/><path class="cls-22" d="M385.07,367.52a56.26,56.26,0,0,0-11.7,1.93"/><path class="cls-19" d="M398.42,378.25s-1.06-4.06,3.81-13.18"/><path class="cls-6" d="M399.52,370.56s-2.74-12.28,7.13-15.24c0,0,3.09,6.59-1.28,11.18S399.52,370.56,399.52,370.56Z"/><path class="cls-23" d="M399.52,370.56a63,63,0,0,1,5.12-12.26"/><path class="cls-19" d="M399,379.15a28.64,28.64,0,0,0-12.22,1.54"/><path class="cls-6" d="M392.22,379.15s-11.33-5.49-16.47,3.44c0,0,5.7,4.52,11.17,1.32S392.22,379.15,392.22,379.15Z"/><path class="cls-23" d="M392.22,379.15a63,63,0,0,0-13.11,2.17"/><path class="cls-19" d="M404.4,389.11s-.63-3.77,5.82-13.05"/><path class="cls-6" d="M406.58,381.68S405.17,368,416.25,366c0,0,2.51,7.54-2.81,12S406.58,381.68,406.58,381.68Z"/><path class="cls-24" d="M406.58,381.68A68.86,68.86,0,0,1,413.69,369"/><path class="cls-19" d="M405.21,390.93a32.79,32.79,0,0,0-13.73.12"/><path class="cls-6" d="M397.56,390.07s-11.59-7.4-18.31,1.63c0,0,5.61,5.63,12,2.86S397.56,390.07,397.56,390.07Z"/><path class="cls-24" d="M397.56,390.07a68.86,68.86,0,0,0-14.5.68"/><path class="cls-19" d="M411,404.72s-.69-4.94,6.33-15.05"/><path class="cls-6" d="M413.33,395.79s-1.54-14.9,10.53-17c0,0,2.74,8.21-3.06,13S413.33,395.79,413.33,395.79Z"/><path class="cls-25" d="M413.33,395.79A75,75,0,0,1,421.07,382"/><path class="cls-19" d="M411.38,405.85a33.46,33.46,0,0,0-14.51.14"/><path class="cls-11" d="M403.5,404.93s-12.62-8.05-19.94,1.78c0,0,6.11,6.13,13,3.11S403.5,404.93,403.5,404.93Z"/><path class="cls-25" d="M403.5,404.93a75,75,0,0,0-15.79.74"/><path class="cls-19" d="M415.45,419.12s.31-4.49,9.58-12.59"/><path class="cls-6" d="M419.71,411.51s2.13-14.82,14.36-14c0,0,.66,8.63-6.13,11.9S419.71,411.51,419.71,411.51Z"/><path class="cls-25" d="M419.71,411.51A75,75,0,0,1,430.57,400"/><path class="cls-19" d="M415.65,420.84a35.13,35.13,0,0,0-14.38-3.44"/><path class="cls-11" d="M408,418s-10.29-10.88-19.78-3.12c0,0,4.44,7.43,11.87,6.19S408,418,408,418Z"/><path class="cls-25" d="M408,418a75,75,0,0,0-15.5-3.12"/><path class="cls-19" d="M418.21,433.63s1-4.9,10.92-12.14"/><path class="cls-11" d="M423.39,426s3.44-14.57,15.54-12.62c0,0-.11,8.66-7.17,11.31S423.39,426,423.39,426Z"/><path class="cls-25" d="M423.39,426a75,75,0,0,1,11.84-10.47"/><path class="cls-19" d="M418.36,434.81a34.65,34.65,0,0,0-13.87-4.6"/><path class="cls-11" d="M411.1,431.38s-9.28-11.75-19.42-4.87c0,0,3.76,7.8,11.27,7.22S411.1,431.38,411.1,431.38Z"/><path class="cls-25" d="M411.1,431.38a75,75,0,0,0-15.16-4.49"/><path class="cls-6" d="M367.16,345.07s-10.49-.19-11-8.77c0,0,5.94-1.21,8.81,3.23S367.16,345.07,367.16,345.07Z"/><path class="cls-20" d="M367.16,345.07a52.55,52.55,0,0,1-8.93-6.56"/><path class="cls-13" d="M457.37,437a42.43,42.43,0,0,1-49-15.28c-3.92-5.48-5.19-10.55,1.33-12.28,16.45-4.37,24.3,3.94,24.3,3.94s-23.77-24.13-16-35.69,19.55,14.76,19.55,14.76-1.63-48.66,18.47-41-7.14,43.28-7.14,43.28,22.77-8.93,26.76,2.27-28.36,17.47-28.36,17.47,29.79.92,23.08,12.78C467.77,431.69,463.06,434.87,457.37,437Z"/><path class="cls-26" d="M433.25,437.41s15.07-72.66,23.07-84.37"/><polyline class="cls-26" points="422.7 417.21 434.96 429.38 453.23 425.34"/><polyline class="cls-26" points="425.14 386.57 439.99 407.12 466.42 399.82"/><polyline class="cls-26" points="438.89 381.88 444.02 389.21 452.2 386.35"/><polyline class="cls-26" points="442.57 368.78 447.76 376.6 456.54 372.72"/><polyline class="cls-26" points="447.16 356.16 452.05 362.7 460.4 360.16"/><path class="cls-11" d="M414.87,421.43A26.27,26.27,0,0,1,385.25,433c-4-1.14-6.59-3.09-4.11-6.45,6.26-8.48,13.27-7.5,13.27-7.5s-20.83-2.47-21.56-11,15.16-.43,15.16-.43-19.61-22.89-6.92-26.95,13.29,23.69,13.29,23.69,7.56-13.13,13.81-9.26-6.95,19.42-6.95,19.42,14.75-11.08,16.1-2.76C417.85,414.85,416.81,418.21,414.87,421.43Z"/><path class="cls-12" d="M403.38,431s-20.83-41-21.49-49.71"/><polyline class="cls-12" points="390.46 425.29 401.1 426.43 408.37 417.41"/><polyline class="cls-12" points="379.79 409.54 394.92 413.72 404.87 399.97"/><polyline class="cls-12" points="384.62 401.94 389.94 403.5 392.79 398.96"/><polyline class="cls-12" points="381.33 394.19 386.86 395.96 389.61 390.69"/><polyline class="cls-12" points="378.67 386.32 383.57 387.58 386.62 383.13"/><rect class="cls-6" x="288.28" y="422.65" width="189.87" height="35.28" rx="6.97" ry="6.97"/><path class="cls-27" d="M471.66,451.65H294.76a6.48,6.48,0,0,1-6.48-6.48v6.29a6.48,6.48,0,0,0,6.48,6.48H471.66a6.48,6.48,0,0,0,6.48-6.48v-6.29A6.48,6.48,0,0,1,471.66,451.65Z"/><rect class="cls-28" x="297.52" y="422.65" width="0.94" height="16.28"/><rect class="cls-28" x="309.41" y="422.65" width="0.94" height="16.28"/><rect class="cls-28" x="299.24" y="422.65" width="0.94" height="8.14"/><rect class="cls-28" x="301.33" y="422.65" width="0.94" height="8.14"/><rect class="cls-28" x="303.42" y="422.65" width="0.94" height="8.14"/><rect class="cls-28" x="305.51" y="422.65" width="0.94" height="8.14"/><rect class="cls-28" x="307.6" y="422.65" width="0.94" height="8.14"/><rect class="cls-28" x="321.47" y="422.65" width="0.94" height="16.28"/><rect class="cls-28" x="311.3" y="422.65" width="0.94" height="8.14"/><rect class="cls-28" x="313.39" y="422.65" width="0.94" height="8.14"/><rect class="cls-28" x="315.48" y="422.65" width="0.94" height="8.14"/><rect class="cls-28" x="317.57" y="422.65" width="0.94" height="8.14"/><rect class="cls-28" x="319.65" y="422.65" width="0.94" height="8.14"/><rect class="cls-28" x="333.78" y="422.65" width="0.94" height="16.28"/><rect class="cls-28" x="323.61" y="422.65" width="0.94" height="8.14"/><rect class="cls-28" x="325.7" y="422.65" width="0.94" height="8.14"/><rect class="cls-28" x="327.79" y="422.65" width="0.94" height="8.14"/><rect class="cls-28" x="329.88" y="422.65" width="0.94" height="8.14"/><rect class="cls-28" x="331.96" y="422.65" width="0.94" height="8.14"/><rect class="cls-28" x="345.83" y="422.65" width="0.94" height="16.28"/><rect class="cls-28" x="335.66" y="422.65" width="0.94" height="8.14"/><rect class="cls-28" x="337.75" y="422.65" width="0.94" height="8.14"/><rect class="cls-28" x="339.84" y="422.65" width="0.94" height="8.14"/><rect class="cls-28" x="341.93" y="422.65" width="0.94" height="8.14"/><rect class="cls-28" x="344.02" y="422.65" width="0.94" height="8.14"/><rect class="cls-28" x="358.21" y="422.65" width="0.94" height="16.28"/><rect class="cls-28" x="348.04" y="422.65" width="0.94" height="8.14"/><rect class="cls-28" x="350.13" y="422.65" width="0.94" height="8.14"/><rect class="cls-28" x="352.22" y="422.65" width="0.94" height="8.14"/><rect class="cls-28" x="354.31" y="422.65" width="0.94" height="8.14"/><rect class="cls-28" x="356.4" y="422.65" width="0.94" height="8.14"/><rect class="cls-28" x="370.27" y="422.65" width="0.94" height="16.28"/><rect class="cls-28" x="360.1" y="422.65" width="0.94" height="8.14"/><rect class="cls-28" x="362.19" y="422.65" width="0.94" height="8.14"/><rect class="cls-28" x="364.28" y="422.65" width="0.94" height="8.14"/><rect class="cls-28" x="366.36" y="422.65" width="0.94" height="8.14"/><rect class="cls-28" x="368.45" y="422.65" width="0.94" height="8.14"/><rect class="cls-28" x="382.58" y="422.65" width="0.94" height="16.28"/><rect class="cls-28" x="372.41" y="422.65" width="0.94" height="8.14"/><rect class="cls-28" x="374.5" y="422.65" width="0.94" height="8.14"/><rect class="cls-28" x="376.59" y="422.65" width="0.94" height="8.14"/><rect class="cls-28" x="378.67" y="422.65" width="0.94" height="8.14"/><rect class="cls-28" x="380.76" y="422.65" width="0.94" height="8.14"/><rect class="cls-28" x="394.63" y="422.65" width="0.94" height="16.28"/><rect class="cls-28" x="384.46" y="422.65" width="0.94" height="8.14"/><rect class="cls-28" x="386.55" y="422.65" width="0.94" height="8.14"/><rect class="cls-28" x="388.64" y="422.65" width="0.94" height="8.14"/><rect class="cls-28" x="390.73" y="422.65" width="0.94" height="8.14"/><rect class="cls-28" x="392.82" y="422.65" width="0.94" height="8.14"/><rect class="cls-28" x="407.11" y="422.65" width="0.94" height="16.28"/><rect class="cls-28" x="396.94" y="422.65" width="0.94" height="8.14"/><rect class="cls-28" x="399.03" y="422.65" width="0.94" height="8.14"/><rect class="cls-28" x="401.12" y="422.65" width="0.94" height="8.14"/><rect class="cls-28" x="403.21" y="422.65" width="0.94" height="8.14"/><rect class="cls-28" x="405.3" y="422.65" width="0.94" height="8.14"/><rect class="cls-28" x="419.17" y="422.65" width="0.94" height="16.28"/><rect class="cls-28" x="409" y="422.65" width="0.94" height="8.14"/><rect class="cls-28" x="411.09" y="422.65" width="0.94" height="8.14"/><rect class="cls-28" x="413.18" y="422.65" width="0.94" height="8.14"/><rect class="cls-28" x="415.27" y="422.65" width="0.94" height="8.14"/><rect class="cls-28" x="417.36" y="422.65" width="0.94" height="8.14"/><rect class="cls-28" x="431.48" y="422.65" width="0.94" height="16.28"/><rect class="cls-28" x="421.31" y="422.65" width="0.94" height="8.14"/><rect class="cls-28" x="423.4" y="422.65" width="0.94" height="8.14"/><rect class="cls-28" x="425.49" y="422.65" width="0.94" height="8.14"/><rect class="cls-28" x="427.58" y="422.65" width="0.94" height="8.14"/><rect class="cls-28" x="429.67" y="422.65" width="0.94" height="8.14"/><rect class="cls-28" x="443.53" y="422.65" width="0.94" height="16.28"/><rect class="cls-28" x="433.36" y="422.65" width="0.94" height="8.14"/><rect class="cls-28" x="435.45" y="422.65" width="0.94" height="8.14"/><rect class="cls-28" x="437.54" y="422.65" width="0.94" height="8.14"/><rect class="cls-28" x="439.63" y="422.65" width="0.94" height="8.14"/><rect class="cls-28" x="441.72" y="422.65" width="0.94" height="8.14"/><rect class="cls-28" x="455.91" y="422.65" width="0.94" height="16.28"/><rect class="cls-28" x="445.74" y="422.65" width="0.94" height="8.14"/><rect class="cls-28" x="447.83" y="422.65" width="0.94" height="8.14"/><rect class="cls-28" x="449.92" y="422.65" width="0.94" height="8.14"/><rect class="cls-28" x="452.01" y="422.65" width="0.94" height="8.14"/><rect class="cls-28" x="454.1" y="422.65" width="0.94" height="8.14"/><rect class="cls-28" x="467.97" y="422.65" width="0.94" height="16.28"/><rect class="cls-28" x="457.8" y="422.65" width="0.94" height="8.14"/><rect class="cls-28" x="459.89" y="422.65" width="0.94" height="8.14"/><rect class="cls-28" x="461.98" y="422.65" width="0.94" height="8.14"/><rect class="cls-28" x="464.07" y="422.65" width="0.94" height="8.14"/><rect class="cls-28" x="466.15" y="422.65" width="0.94" height="8.14"/><rect class="cls-29" x="87.81" y="207.48" width="167.95" height="94.05" rx="9.55" ry="9.55"/><rect class="cls-4" x="127.83" y="173.59" width="87.93" height="161.83" rx="4.55" ry="4.55" transform="translate(426.3 82.72) rotate(90)"/><rect class="cls-30" x="111.22" y="221.4" width="121.15" height="66.22" rx="9.13" ry="9.13"/><circle class="cls-31" cx="171.68" cy="253.08" r="23.15"/><polygon class="cls-4" points="163.11 240.93 163.11 265.23 187.01 253.08 163.11 240.93"/><path class="cls-29" d="M98.7,204h15.51a3.39,3.39,0,0,1,3.39,3.39v.08a0,0,0,0,1,0,0H95.31a0,0,0,0,1,0,0v-.08A3.39,3.39,0,0,1,98.7,204Z"/><path class="cls-29" d="M121,204h15.51a3.39,3.39,0,0,1,3.39,3.39v.08a0,0,0,0,1,0,0H117.6a0,0,0,0,1,0,0v-.08A3.39,3.39,0,0,1,121,204Z"/><path class="cls-29" d="M279,248.15s2.54,45.15-13,32.06,3.59-28.73,3.59-28.73-4.67-5.86-3.36-12.12,6.93-5.39,6.93-5.39Z"/><path class="cls-32" d="M268,268.26s-2-10.86,6.31-11.42C274.33,256.85,272.94,264.53,268,268.26Z"/><path class="cls-32" d="M269,257.27c-5.49,1-18.79,3.57-22.49,5.6,0,0-10.93-7.54-18.67-9.79l-2.37,3.27s14.82,10,21,12.12c0,0,21.06-1.81,27-4,4.05-1.47,5.65-4.62,3.41-7C275.75,256.33,270.56,257,269,257.27Z"/><polygon class="cls-32" points="314 336.38 322.92 339.39 321.27 342.49 314 339.44 314 336.38"/><path class="cls-10" d="M322.38,339.12l-1.17,3c0,.12,0,0,0,.12l-.31,7.94a1,1,0,0,0,2,.51l4.77-8.55a1,1,0,0,0-.58-1.51Z"/><polygon class="cls-32" points="273.15 355.44 273.05 364.86 269.58 364.25 270.24 356.38 273.15 355.44"/><path class="cls-10" d="M273.13,364.26l-3.25-.17c-.13,0,0,0-.13,0l-7.65,2.16a1,1,0,0,0,.12,2l9.6,1.89a1,1,0,0,0,1.25-1Z"/><path class="cls-10" d="M291.5,291.71s4,5.79,1.34,28.27c0,0,13.92,9.9,25.16,17.4v4.28s-23.28-7.76-31.58-12.31c0,0-5.89-13.92-5.89-21.68a20.32,20.32,0,0,1-2.42,9.44,22.69,22.69,0,0,0-2.88,10.09l-1.13,34.26h-4.82s-8.3-59.68,2.41-69.75Z"/><path class="cls-6" d="M275.09,256.74l11.25-.3a39,39,0,0,1,5.2.35,5.28,5.28,0,0,0,.56,0l.12,0a25.32,25.32,0,0,0-.56,16.57,26.93,26.93,0,0,0,3,19.35c2.28,3.88-8.38,6.19-12.67,6.63-4.46.46-9.93-1.34-12.44-5.26a2.57,2.57,0,0,1,0-2.8c1.46-2.23,3.94-7.69.53-15.75-2.46-5.82-2.27-3.59-2.07-7.33a9.29,9.29,0,0,0,3.43-7.7A3.77,3.77,0,0,1,275.09,256.74Z"/><path class="cls-32" d="M292.11,256.82a65.4,65.4,0,0,1,16,16.52,3.6,3.6,0,0,1,.22,3.62c-2,3.85-6.88,10.66-13.36,16.59l-1.56-1.38a1.8,1.8,0,0,1-.24-2.45c2.09-2.72,6.91-9,10.13-12.57,0,0-11.45-10.46-12.66-14.06C290.6,263.09,288.15,265.85,292.11,256.82Z"/><path class="cls-32" d="M291.68,273.41a11.73,11.73,0,0,0,2.52-9.85c-1.13-6.05-2.08-6.74-2.08-6.74S287.13,263,291.68,273.41Z"/><path class="cls-33" d="M283.6,244.67l.35,9.37a9.16,9.16,0,0,1-1.18,5,6.44,6.44,0,0,1-2,2.19,2.74,2.74,0,0,1-3.86-1.06h0a2.75,2.75,0,0,1-.33-1.33l.12-9.66Z"/><path class="cls-32" d="M286.15,242.66c-.22,4.57-4.23,10.58-8.79,10.36s-8-6.59-7.75-11.16a8.28,8.28,0,0,1,16.55.8Z"/><path class="cls-29" d="M279.47,239.87a10.76,10.76,0,0,1-7.15,4.61,3.23,3.23,0,0,1-3.75-4c1.2-4.39,4.6-10.18,14.2-6.53,14.58,5.55,8.33,17.7,8.33,17.7s14.06,9.17,6.6,23.51-17.43,0-17.43,0-7.44-11.59,1.18-20.67c0,0,5.15-8.56,2.46-12.21s-2.46,2.37-2.46,2.37S279.64,245.77,279.47,239.87Z"/><path class="cls-32" d="M293.12,289.73s-4.54,7.78,3.71,10.31a2.45,2.45,0,0,0,2.8-1,2.36,2.36,0,0,0,.25-1.85c-.56-2.35-4.21-.74-4-2.5a9.67,9.67,0,0,1,.95-3Z"/><path class="cls-32" d="M229.38,258.5s-5.44.22-6.87-1.85.2-4.73.2-4.73-5-1.7-4.78-3.59,6,2,6,2l1.47-.14a2.81,2.81,0,0,1,2.57,1.2l2.8,2.22Z"/><rect class="cls-34" x="417.49" y="323.43" width="4.71" height="8.56" transform="translate(112.71 -107.41) rotate(16.81)"/><path class="cls-35" d="M416.57,330.39s-8.38,10.35-2.24,13.09,6.79-11.85,6.79-11.85S419.2,328.17,416.57,330.39Z"/><path class="cls-35" d="M415.09,332.45s-.7-4.27,2.37-5l-.86,3.25Z"/><rect class="cls-34" x="422.26" y="324.39" width="4.71" height="8.56" transform="matrix(-0.96, 0.29, -0.29, -0.96, 926.13, 520.5)"/><path class="cls-35" d="M427.89,331.35s8.38,10.35,2.24,13.09-6.79-11.85-6.79-11.85S425.26,329.13,427.89,331.35Z"/><path class="cls-35" d="M429.37,333.4s.7-4.27-2.37-5l.86,3.25Z"/><path class="cls-35" d="M433.8,227.87c-.81-.4,9.59,5.18,15.78,22.64a3.54,3.54,0,0,1-1.56,4.23L435.54,262l-2-7.48,6.86-3.63-8.14-11.61S424.47,223.24,433.8,227.87Z"/><path class="cls-35" d="M412.67,228c-3.55,2.31-10.21,8.23-15.11,22a3.56,3.56,0,0,0,1.54,4.27l12.48,7.29,2-7.48-6.86-3.63,8.14-11.61s6.32-4,2.14-10.1A3.13,3.13,0,0,0,412.67,228Z"/><path class="cls-10" d="M416.89,227h13a6.73,6.73,0,0,1,6.73,6.73v39.58a0,0,0,0,1,0,0h-26.5a0,0,0,0,1,0,0V233.78A6.73,6.73,0,0,1,416.89,227Z"/><path class="cls-36" d="M414.31,281.52s16.71,2.25,19.4-1.25,1.48-8.9,1.48-8.9l-24.07.06S408.83,281,414.31,281.52Z"/><path class="cls-13" d="M422.08,327.5s-28.81-55.37-11.57-57.09c7.38-.74,16.33,56.6,16.33,56.6Z"/><path class="cls-13" d="M422.35,327.52s29.23-55.31,11.51-57.12c-7.59-.77-16.4,56.6-16.4,56.6Z"/><path class="cls-34" d="M423.77,234.17a4.2,4.2,0,0,1-4.2-4.2V218.92H428V230C428.22,234.49,423.77,234.17,423.77,234.17Z"/><path class="cls-34" d="M433.39,213.73c0,5.27-4.27,12.4-9.54,12.4s-9.54-7.13-9.54-12.4a9.54,9.54,0,0,1,19.07,0Z"/><path class="cls-34" d="M431.42,215.94a2.55,2.55,0,0,1,1.67-2.66c.74-.24,1.52-.11,1.93,1.12.73,2.2.29,5-1.33,5.53A1.38,1.38,0,0,1,432,219,14.59,14.59,0,0,1,431.42,215.94Z"/><path class="cls-34" d="M416.28,215.94a2.55,2.55,0,0,0-1.67-2.66c-.74-.24-1.52-.11-1.93,1.12-.73,2.2-.29,5,1.33,5.53a1.38,1.38,0,0,0,1.74-.93A14.59,14.59,0,0,0,416.28,215.94Z"/><path class="cls-16" d="M402.76,245.9l3.13,23.68a2.13,2.13,0,0,0,2.11,1.85h31.09a2.13,2.13,0,0,0,2.1-1.77L445.27,246a2.13,2.13,0,0,0-2.1-2.49h-38.3A2.13,2.13,0,0,0,402.76,245.9Z"/><circle class="cls-4" cx="424.02" cy="257.46" r="6.25"/><path class="cls-35" d="M432.61,217.17s-3.44-1.53-3.39-7a9.69,9.69,0,0,1-11.45,0s1,5.23-2.94,7c0,0-3.08-7.12,4.73-12,0,0,7.41-3.47,12.39,3.52A9.28,9.28,0,0,1,432.61,217.17Z"/><path class="cls-35" d="M415.53,216.59s1.88,6.38,4.93,5.52c0,0,3.36-4.27,6.46.46a10.94,10.94,0,0,0,5.7-6s-.07,6.71-7.86,9.47c0,0-3.32,1-7-3.32s-2.88-7.58-2.88-7.58Z"/><ellipse class="cls-34" cx="423.76" cy="223.57" rx="1.88" ry="1.62"/><path class="cls-13" d="M356.27,253.71s15.52-28,27.49-18.8S368.7,246.69,356.27,253.71Z"/><path class="cls-13" d="M352.82,253.89s-7.86-31-21.77-25.2S342.6,243.92,352.82,253.89Z"/><path class="cls-13" d="M355.72,252.75s6.08-23,1.27-22.53S349,236.34,355.72,252.75Z"/><path class="cls-6" d="M295.22,195.36s-4.12-21.89,6.37-22.31S298.75,186.07,295.22,195.36Z"/><path class="cls-6" d="M293.45,197s-18-13.12-22.88-3.82S283.53,196.19,293.45,197Z"/><path class="cls-6" d="M294.49,195.09s-7-15-9.35-12.64S283.61,189.28,294.49,195.09Z"/><g class="cls-37"><path class="cls-38" d="M393,26s-67.21,26.6,9.14,74.6,36.71,172.51,124.78,122.25S526.92,0,526.92,0Z"/><path class="cls-38" d="M9,468.08s34.22-38.35,77.4,15-25.55,118.43-65,76.43S9,468.08,9,468.08Z"/></g><path class="cls-38" d="M331.3,43.52a26.64,26.64,0,0,0-24.5-4.59c-20,6-62.77,22.82-39.56,51C293.82,122.18,360.84,67.57,331.3,43.52Z"/><path class="cls-38" d="M380.7,111.4a12.12,12.12,0,0,0-2.93-11c-6.4-7-21.7-21.28-28.7-6.22C341.05,111.47,376.64,128.25,380.7,111.4Z"/></g></g></svg>